<svg width="40" height="40" viewBox="0 0 40 40" fill="none" xmlns="http://www.w3.org/2000/svg">
<path d="M33.75 5.625H6.25C5.4212 5.625 4.62634 5.95424 4.04029 6.54029C3.45424 7.12634 3.125 7.9212 3.125 8.75V31.25C3.125 32.0788 3.45424 32.8737 4.04029 33.4597C4.62634 34.0458 5.4212 34.375 6.25 34.375H33.75C34.5788 34.375 35.3737 34.0458 35.9597 33.4597C36.5458 32.8737 36.875 32.0788 36.875 31.25V8.75C36.875 7.9212 36.5458 7.12634 35.9597 6.54029C35.3737 5.95424 34.5788 5.625 33.75 5.625ZM33.125 30.625H6.875V9.375H33.125V30.625ZM9.375 14.375C9.375 13.8805 9.52162 13.3972 9.79633 12.9861C10.071 12.575 10.4615 12.2545 10.9183 12.0653C11.3751 11.8761 11.8778 11.8266 12.3627 11.923C12.8477 12.0195 13.2931 12.2576 13.6428 12.6072C13.9924 12.9569 14.2305 13.4023 14.327 13.8873C14.4234 14.3722 14.3739 14.8749 14.1847 15.3317C13.9955 15.7885 13.675 16.179 13.2639 16.4537C12.8528 16.7284 12.3695 16.875 11.875 16.875C11.212 16.875 10.5761 16.6116 10.1072 16.1428C9.63839 15.6739 9.375 15.038 9.375 14.375ZM16.875 14.375C16.875 13.8805 17.0216 13.3972 17.2963 12.9861C17.571 12.575 17.9615 12.2545 18.4183 12.0653C18.8751 11.8761 19.3778 11.8266 19.8627 11.923C20.3477 12.0195 20.7931 12.2576 21.1428 12.6072C21.4924 12.9569 21.7305 13.4023 21.827 13.8873C21.9234 14.3722 21.8739 14.8749 21.6847 15.3317C21.4955 15.7885 21.175 16.179 20.7639 16.4537C20.3528 16.7284 19.8695 16.875 19.375 16.875C18.712 16.875 18.0761 16.6116 17.6072 16.1428C17.1384 15.6739 16.875 15.038 16.875 14.375Z" fill="#0075FF"/>
</svg>
