<svg width="40" height="40" viewBox="0 0 40 40" fill="none" xmlns="http://www.w3.org/2000/svg">
<path d="M34.375 7.5V15C34.375 15.4973 34.1775 15.9742 33.8258 16.3258C33.4742 16.6775 32.9973 16.875 32.5 16.875C32.0027 16.875 31.5258 16.6775 31.1742 16.3258C30.8225 15.9742 30.625 15.4973 30.625 15V12.0312L25.0766 17.5812C24.7243 17.9335 24.2466 18.1314 23.7484 18.1314C23.2503 18.1314 22.7726 17.9335 22.4203 17.5812C22.0681 17.229 21.8702 16.7513 21.8702 16.2531C21.8702 15.755 22.0681 15.2772 22.4203 14.925L27.9688 9.375H25C24.5027 9.375 24.0258 9.17746 23.6742 8.82583C23.3225 8.47419 23.125 7.99728 23.125 7.5C23.125 7.00272 23.3225 6.52581 23.6742 6.17417C24.0258 5.82254 24.5027 5.625 25 5.625H32.5C32.9973 5.625 33.4742 5.82254 33.8258 6.17417C34.1775 6.52581 34.375 7.00272 34.375 7.5ZM14.9234 22.4234L9.375 27.9688V25C9.375 24.5027 9.17746 24.0258 8.82583 23.6742C8.47419 23.3225 7.99728 23.125 7.5 23.125C7.00272 23.125 6.52581 23.3225 6.17417 23.6742C5.82254 24.0258 5.625 24.5027 5.625 25V32.5C5.625 32.9973 5.82254 33.4742 6.17417 33.8258C6.52581 34.1775 7.00272 34.375 7.5 34.375H15C15.4973 34.375 15.9742 34.1775 16.3258 33.8258C16.6775 33.4742 16.875 32.9973 16.875 32.5C16.875 32.0027 16.6775 31.5258 16.3258 31.1742C15.9742 30.8225 15.4973 30.625 15 30.625H12.0312L17.5812 25.0766C17.9335 24.7243 18.1314 24.2466 18.1314 23.7484C18.1314 23.2503 17.9335 22.7726 17.5812 22.4203C17.229 22.0681 16.7513 21.8702 16.2531 21.8702C15.755 21.8702 15.2772 22.0681 14.925 22.4203L14.9234 22.4234ZM32.5 23.125C32.0027 23.125 31.5258 23.3225 31.1742 23.6742C30.8225 24.0258 30.625 24.5027 30.625 25V27.9688L25.0766 22.4187C24.7243 22.0665 24.2466 21.8686 23.7484 21.8686C23.2503 21.8686 22.7726 22.0665 22.4203 22.4187C22.0681 22.771 21.8702 23.2487 21.8702 23.7469C21.8702 24.245 22.0681 24.7228 22.4203 25.075L27.9688 30.625H25C24.5027 30.625 24.0258 30.8225 23.6742 31.1742C23.3225 31.5258 23.125 32.0027 23.125 32.5C23.125 32.9973 23.3225 33.4742 23.6742 33.8258C24.0258 34.1775 24.5027 34.375 25 34.375H32.5C32.9973 34.375 33.4742 34.1775 33.8258 33.8258C34.1775 33.4742 34.375 32.9973 34.375 32.5V25C34.375 24.5027 34.1775 24.0258 33.8258 23.6742C33.4742 23.3225 32.9973 23.125 32.5 23.125ZM12.0312 9.375H15C15.4973 9.375 15.9742 9.17746 16.3258 8.82583C16.6775 8.47419 16.875 7.99728 16.875 7.5C16.875 7.00272 16.6775 6.52581 16.3258 6.17417C15.9742 5.82254 15.4973 5.625 15 5.625H7.5C7.00272 5.625 6.52581 5.82254 6.17417 6.17417C5.82254 6.52581 5.625 7.00272 5.625 7.5V15C5.625 15.4973 5.82254 15.9742 6.17417 16.3258C6.52581 16.6775 7.00272 16.875 7.5 16.875C7.99728 16.875 8.47419 16.6775 8.82583 16.3258C9.17746 15.9742 9.375 15.4973 9.375 15V12.0312L14.9234 17.5812C15.2757 17.9335 15.7534 18.1314 16.2516 18.1314C16.7497 18.1314 17.2274 17.9335 17.5797 17.5812C17.9319 17.229 18.1298 16.7513 18.1298 16.2531C18.1298 15.755 17.9319 15.2772 17.5797 14.925L12.0312 9.375Z" fill="#0075FF"/>
</svg>
