<svg width="40" height="40" viewBox="0 0 40 40" fill="none" xmlns="http://www.w3.org/2000/svg">
<path d="M26.875 11.25V31.25C26.875 31.7473 26.6775 32.2242 26.3258 32.5758C25.9742 32.9275 25.4973 33.125 25 33.125C24.5027 33.125 24.0258 32.9275 23.6742 32.5758C23.3225 32.2242 23.125 31.7473 23.125 31.25V11.25C23.125 10.7527 23.3225 10.2758 23.6742 9.92417C24.0258 9.57254 24.5027 9.375 25 9.375C25.4973 9.375 25.9742 9.57254 26.3258 9.92417C26.6775 10.2758 26.875 10.7527 26.875 11.25ZM31.25 3.125C30.7527 3.125 30.2758 3.32254 29.9242 3.67417C29.5725 4.02581 29.375 4.50272 29.375 5V31.25C29.375 31.7473 29.5725 32.2242 29.9242 32.5758C30.2758 32.9275 30.7527 33.125 31.25 33.125C31.7473 33.125 32.2242 32.9275 32.5758 32.5758C32.9275 32.2242 33.125 31.7473 33.125 31.25V5C33.125 4.50272 32.9275 4.02581 32.5758 3.67417C32.2242 3.32254 31.7473 3.125 31.25 3.125ZM18.75 15.625C18.2527 15.625 17.7758 15.8225 17.4242 16.1742C17.0725 16.5258 16.875 17.0027 16.875 17.5V31.25C16.875 31.7473 17.0725 32.2242 17.4242 32.5758C17.7758 32.9275 18.2527 33.125 18.75 33.125C19.2473 33.125 19.7242 32.9275 20.0758 32.5758C20.4275 32.2242 20.625 31.7473 20.625 31.25V17.5C20.625 17.0027 20.4275 16.5258 20.0758 16.1742C19.7242 15.8225 19.2473 15.625 18.75 15.625ZM12.5 21.875C12.0027 21.875 11.5258 22.0725 11.1742 22.4242C10.8225 22.7758 10.625 23.2527 10.625 23.75V31.25C10.625 31.7473 10.8225 32.2242 11.1742 32.5758C11.5258 32.9275 12.0027 33.125 12.5 33.125C12.9973 33.125 13.4742 32.9275 13.8258 32.5758C14.1775 32.2242 14.375 31.7473 14.375 31.25V23.75C14.375 23.2527 14.1775 22.7758 13.8258 22.4242C13.4742 22.0725 12.9973 21.875 12.5 21.875ZM6.25 28.125C5.75272 28.125 5.27581 28.3225 4.92417 28.6742C4.57254 29.0258 4.375 29.5027 4.375 30V31.25C4.375 31.7473 4.57254 32.2242 4.92417 32.5758C5.27581 32.9275 5.75272 33.125 6.25 33.125C6.74728 33.125 7.22419 32.9275 7.57583 32.5758C7.92746 32.2242 8.125 31.7473 8.125 31.25V30C8.125 29.5027 7.92746 29.0258 7.57583 28.6742C7.22419 28.3225 6.74728 28.125 6.25 28.125Z" fill="#0075FF"/>
</svg>
