<svg width="40" height="40" viewBox="0 0 40 40" fill="none" xmlns="http://www.w3.org/2000/svg">
<path d="M25.0004 6.25C22.4468 6.25196 19.944 6.96428 17.7721 8.30728C15.6002 9.65029 13.8447 11.571 12.702 13.8547C11.3425 13.6564 9.9568 13.7404 8.63125 14.1014C7.30571 14.4623 6.06875 15.0926 4.99755 15.9528C3.92635 16.8129 3.04388 17.8846 2.40519 19.1009C1.76649 20.3173 1.38527 21.6522 1.2853 23.0223C1.18533 24.3925 1.36876 25.7686 1.82415 27.0647C2.27953 28.3609 2.99711 29.5493 3.93211 30.5559C4.86711 31.5624 5.99949 32.3655 7.25861 32.9151C8.51772 33.4646 9.87657 33.7488 11.2504 33.75H25.0004C28.6471 33.75 32.1445 32.3013 34.7231 29.7227C37.3017 27.1441 38.7504 23.6467 38.7504 20C38.7504 16.3533 37.3017 12.8559 34.7231 10.2773C32.1445 7.69866 28.6471 6.25 25.0004 6.25ZM25.0004 31.25H11.2504C9.26127 31.25 7.35361 30.4598 5.94709 29.0533C4.54057 27.6468 3.75039 25.7391 3.75039 23.75C3.75039 21.7609 4.54057 19.8532 5.94709 18.4467C7.35361 17.0402 9.26127 16.25 11.2504 16.25C11.4223 16.25 11.5941 16.25 11.7645 16.2672C11.4226 17.482 11.2496 18.738 11.2504 20C11.2504 20.3315 11.3821 20.6495 11.6165 20.8839C11.8509 21.1183 12.1689 21.25 12.5004 21.25C12.8319 21.25 13.1499 21.1183 13.3843 20.8839C13.6187 20.6495 13.7504 20.3315 13.7504 20C13.7504 17.775 14.4102 15.5999 15.6464 13.7498C16.8825 11.8998 18.6395 10.4578 20.6952 9.60636C22.7509 8.75487 25.0129 8.53208 27.1952 8.96617C29.3774 9.40025 31.382 10.4717 32.9553 12.045C34.5287 13.6184 35.6001 15.6229 36.0342 17.8052C36.4683 19.9875 36.2455 22.2495 35.394 24.3052C34.5425 26.3609 33.1006 28.1179 31.2506 29.354C29.4005 30.5902 27.2254 31.25 25.0004 31.25Z" fill="#0075FF"/>
</svg>
