<svg width="40" height="40" viewBox="0 0 40 40" fill="none" xmlns="http://www.w3.org/2000/svg">
<path d="M11.1999 15.1905L5.42803 19.9999L11.1999 24.8093C11.3913 24.9662 11.5498 25.1594 11.6662 25.3778C11.7826 25.5962 11.8545 25.8355 11.878 26.0819C11.9014 26.3283 11.8759 26.5768 11.8028 26.8133C11.7297 27.0497 11.6105 27.2694 11.4521 27.4595C11.2937 27.6497 11.0992 27.8066 10.8799 27.9213C10.6605 28.0359 10.4207 28.106 10.1741 28.1274C9.92756 28.1489 9.67919 28.1214 9.44333 28.0464C9.20747 27.9714 8.9888 27.8505 8.79991 27.6905L1.29991 21.4405C1.08867 21.2646 0.918721 21.0443 0.802089 20.7954C0.685458 20.5464 0.625 20.2748 0.625 19.9999C0.625 19.725 0.685458 19.4534 0.802089 19.2045C0.918721 18.9555 1.08867 18.7353 1.29991 18.5593L8.79991 12.3093C9.18252 11.9957 9.67355 11.8461 10.166 11.8929C10.6585 11.9398 11.1125 12.1794 11.4291 12.5595C11.7457 12.9396 11.8992 13.4294 11.8563 13.9222C11.8134 14.415 11.5775 14.8709 11.1999 15.1905ZM38.6999 18.5593L31.1999 12.3093C31.011 12.1494 30.7923 12.0284 30.5565 11.9535C30.3206 11.8785 30.0723 11.8509 29.8257 11.8724C29.5791 11.8939 29.3393 11.9639 29.1199 12.0786C28.9006 12.1932 28.7061 12.3501 28.5477 12.5403C28.3893 12.7304 28.2701 12.9501 28.197 13.1865C28.1239 13.423 28.0984 13.6716 28.1218 13.9179C28.1453 14.1643 28.2173 14.4036 28.3336 14.622C28.45 14.8405 28.6085 15.0337 28.7999 15.1905L34.5718 19.9999L28.7999 24.8093C28.6085 24.9662 28.45 25.1594 28.3336 25.3778C28.2173 25.5962 28.1453 25.8355 28.1218 26.0819C28.0984 26.3283 28.1239 26.5768 28.197 26.8133C28.2701 27.0497 28.3893 27.2694 28.5477 27.4595C28.7061 27.6497 28.9006 27.8066 29.1199 27.9213C29.3393 28.0359 29.5791 28.106 29.8257 28.1274C30.0723 28.1489 30.3206 28.1214 30.5565 28.0464C30.7923 27.9714 31.011 27.8505 31.1999 27.6905L38.6999 21.4405C38.9111 21.2646 39.0811 21.0443 39.1977 20.7954C39.3144 20.5464 39.3748 20.2748 39.3748 19.9999C39.3748 19.725 39.3144 19.4534 39.1977 19.2045C39.0811 18.9555 38.9111 18.7353 38.6999 18.5593ZM25.6405 4.48742C25.4091 4.40324 25.1633 4.3655 24.9173 4.37633C24.6712 4.38715 24.4297 4.44635 24.2066 4.55053C23.9834 4.65471 23.783 4.80184 23.6167 4.9835C23.4504 5.16517 23.3215 5.37781 23.2374 5.60929L13.2374 33.1093C13.0679 33.5765 13.0909 34.092 13.3012 34.5423C13.5116 34.9926 13.8922 35.341 14.3593 35.5109C14.5644 35.5866 14.7813 35.6252 14.9999 35.6249C15.3849 35.625 15.7605 35.5066 16.0759 35.2857C16.3912 35.0649 16.6309 34.7523 16.7624 34.3905L26.7624 6.89054C26.8466 6.65909 26.8843 6.41332 26.8735 6.16728C26.8627 5.92124 26.8035 5.67974 26.6993 5.45657C26.5951 5.23341 26.448 5.03296 26.2663 4.86667C26.0847 4.70038 25.872 4.57151 25.6405 4.48742Z" fill="#0075FF"/>
</svg>
