<svg width="40" height="40" viewBox="0 0 40 40" fill="none" xmlns="http://www.w3.org/2000/svg">
<path d="M29.375 13.4547V13.125C29.375 10.8406 27.6828 8.82031 24.6078 7.4375C22.0109 6.26875 18.5938 5.625 15 5.625C11.4062 5.625 7.98906 6.26875 5.39219 7.4375C2.31719 8.82031 0.625 10.8406 0.625 13.125V19.375C0.625 21.6594 2.31719 23.6797 5.39219 25.0625C7.06323 25.7856 8.82287 26.2837 10.625 26.5438V26.875C10.625 29.1594 12.3172 31.1797 15.3922 32.5625C17.9891 33.7312 21.4062 34.375 25 34.375C28.5938 34.375 32.0109 33.7312 34.6078 32.5625C37.6828 31.1797 39.375 29.1594 39.375 26.875V20.625C39.375 17.1656 35.4234 14.3875 29.375 13.4547ZM35.625 20.625C35.625 21.8359 32.2234 24.1375 25.9672 24.3563C28.1766 23.0312 29.375 21.2969 29.375 19.375V17.2563C33.4188 17.9922 35.625 19.6062 35.625 20.625ZM16.7766 23.0672C16.2094 23.1047 15.6172 23.125 15 23.125C14.2063 23.125 13.4547 23.0906 12.7453 23.0297C12.6862 23.0219 12.6268 23.0172 12.5672 23.0156C12.3313 22.9937 12.0984 22.9688 11.875 22.9406V20.4578C12.9129 20.5693 13.9561 20.6251 15 20.625C16.0439 20.6251 17.0871 20.5693 18.125 20.4578V22.9406C17.7359 22.9875 17.3328 23.0281 16.9141 23.0578C16.875 23.0594 16.8219 23.0625 16.7766 23.0672ZM25.625 18.3031V19.375C25.625 20.1219 24.3312 21.2828 21.875 22.1156V19.7719C22.8102 19.5264 23.724 19.2061 24.6078 18.8141C24.9661 18.6526 25.3052 18.4823 25.625 18.3031ZM15 9.375C21.875 9.375 25.625 11.8516 25.625 13.125C25.625 14.3984 21.875 16.875 15 16.875C8.125 16.875 4.375 14.3984 4.375 13.125C4.375 11.8516 8.125 9.375 15 9.375ZM4.375 19.375V18.3031C4.69583 18.4812 5.0349 18.651 5.39219 18.8125C6.27595 19.2046 7.18984 19.5249 8.125 19.7703V22.1141C5.66875 21.2828 4.375 20.1219 4.375 19.375ZM14.375 26.875C14.5828 26.875 14.7906 26.875 15 26.875C15.5667 26.875 16.1276 26.8583 16.6828 26.825C17.1464 26.9885 17.6271 27.1375 18.125 27.2719V29.6156C15.6687 28.7828 14.375 27.6219 14.375 26.875ZM21.875 30.4406V27.9594C22.9129 28.0705 23.9561 28.1258 25 28.125C26.0439 28.1251 27.0871 28.0693 28.125 27.9578V30.4406C26.0489 30.6865 23.9511 30.6865 21.875 30.4406ZM31.875 29.6156V27.2719C32.8102 27.0264 33.724 26.7061 34.6078 26.3141C34.9661 26.1536 35.3052 25.9839 35.625 25.8047V26.875C35.625 27.6219 34.3312 28.7828 31.875 29.6156Z" fill="#0075FF"/>
</svg>
