<?xml version="1.0" encoding="UTF-8"?>
<svg version="1.1" viewBox="0 0 800 800" width="1280" height="1280" xmlns="http://www.w3.org/2000/svg">
<path transform="translate(373,253)" d="m0 0h27l18 3 28 7 46 14 32 10 36 10 12 3h4l2-9 4-8 7-6 14-6 30-9 18-5h11l10 4 7 6 6 12 6 22 20 75 20 74 10 36v15l-5 10-7 7-15 6-41 12-7 2h-11l-12-6-6-7-5-1-16 4v7l-5 13-6 9-11 11-12 7-10 4-8 2-3 12-7 10-8 8-13 8-14 5-9 1-3-1-1 7-6 10-9 10-10 7-15 7-8 1-10 10-10 6-13 4-5 1h-15l-16-3-8-4h-5l-5 4-13 4-9 2h-19l-13-4-14-7-10-10-10-1-13-4-9-6-7-7-8-13-4 1h-12l-11-4-11-8-7-8-5-12-2-8-16-5-12-9-6-8-4-10-2-10 1-8 5-12-2-4-6-4h-5l-10 7-12 3-25-7-31-9-12-6-7-8-4-10v-10l16-61 22-82 13-47 5-19 4-10 4-5 9-6 4-2h14l41 12 17 6 8 6 6 9 2 5v8l8 2 32 5 13-7 21-13 19-12 18-10 19-8 14-4 9-2zm11 18-14 1-17 4-16 6-21 11-19 12-21 13-14 9-14 10-9 8-3 5v6l7 8 7 3 5 1h22l16-4 17-7 25-11 17-5 18-3h37l17 3 16 5 18 8 18 10 18 13 10 9 11 9 24 24 7 8 9 9 9 11 11 13 11 14 13 16 12 14 2 3 4 1 9-1 2-1v-8l-15-59-13-48-15-56-3-10-4-4-25-6-45-13-52-16-39-11-19-3zm-258 5-4 5-7 24-14 52-13 48-13 49-7 26-3 11v8l6 4 46 14 9 2 5-1 3-3 4-10 9-34 20-75 13-48 11-43v-9l-6-4-25-8-24-7zm528 0-40 12-15 5-3 2v9l8 32 6 22 13 49 12 44 9 34 8 27 3 5 2 2 10-1 32-10 15-4 6-4 1-1v-11l-11-43-10-37-17-63-8-30-8-29-5-9-2-1zm-447 46-2 2-11 42-14 51-11 43-8 29-3 12v9l11 8 11 7h10l16 4 10 6 8 10 4 1 9-3 9 1 13 5 10 9 7 11 1 1 14 1 10 3 10 6 7 8 7 16 1 10 15 3 11 4 6 4 6 7 7 18 4 6 5 4 15 5 16 3 12-1 10-4 6-5 8-10 12-1 9-4 7-4 7-7 6-8 4-13 1-4 21-2 12-4 10-7 6-8 3-5 1-6v-7l4-5 14-2 13-5 9-7 7-8 3-8v-11l-3-9-10-13-28-34-9-11-15-16-7-8-25-25-11-9-12-10-21-14-19-9-15-5-19-3h-27l-20 3-21 7-33 15-16 4-13 2h-14l-16-3-10-5-7-6-5-8-2-9v-8l4-10 6-10v-3zm-25 222-6 5-2 6 1 8 4 7 8 7 6 2 10 2 6 4 4 8 3 13 7 8 5 4 5 2 8-1h10l8 4 5 6 4 9 8 7 6 3 12 1 10 4 7 6 5 5 7 4 12 2h13l9-2-1-6-4-8-4-12-4-5-7-3h-12l-10-5-5-6-5-20-3-6-7-6-4-2h-21l-9-6-4-9-6-8-5-3-7-1-14 4-8-1-5-3-7-10-5-5-7-3z" fill="#181818"/>
</svg>
