<svg width="40" height="40" viewBox="0 0 40 40" fill="none" xmlns="http://www.w3.org/2000/svg">
<path d="M30.625 5.55C27.7531 3.98594 23.9813 3.125 20 3.125C16.0188 3.125 12.2469 3.98594 9.375 5.55C6.15156 7.31094 4.375 9.77812 4.375 12.5V27.5C4.375 30.2219 6.15156 32.6891 9.375 34.45C12.2422 36.0125 16.0141 36.875 20 36.875C23.9859 36.875 27.7531 36.0141 30.625 34.45C33.8531 32.6891 35.625 30.2219 35.625 27.5V12.5C35.625 9.77812 33.8484 7.31094 30.625 5.55ZM31.875 20C31.875 22.6562 26.9984 25.625 20 25.625C13.0016 25.625 8.125 22.6562 8.125 20V18.6781C8.52776 18.9573 8.94501 19.2149 9.375 19.45C12.2422 21.0125 16.0141 21.875 20 21.875C23.9859 21.875 27.7531 21.0141 30.625 19.45C31.055 19.2149 31.4722 18.9573 31.875 18.6781V20ZM20 6.875C26.9984 6.875 31.875 9.84375 31.875 12.5C31.875 15.1562 26.9984 18.125 20 18.125C13.0016 18.125 8.125 15.1562 8.125 12.5C8.125 9.84375 13.0016 6.875 20 6.875ZM20 33.125C13.0016 33.125 8.125 30.1562 8.125 27.5V26.1781C8.52776 26.4573 8.94501 26.7149 9.375 26.95C12.2422 28.5125 16.0141 29.375 20 29.375C23.9859 29.375 27.7531 28.5141 30.625 26.95C31.055 26.7149 31.4722 26.4573 31.875 26.1781V27.5C31.875 30.1562 26.9984 33.125 20 33.125Z" fill="#0075FF"/>
</svg>
