<svg width="40" height="40" viewBox="0 0 40 40" fill="none" xmlns="http://www.w3.org/2000/svg">
<path d="M32.5 5.625H7.5C6.33968 5.625 5.22688 6.08594 4.40641 6.90641C3.58594 7.72688 3.125 8.83968 3.125 10V26.875C3.125 28.0353 3.58594 29.1481 4.40641 29.9686C5.22688 30.7891 6.33968 31.25 7.5 31.25H18.125V33.125H15C14.5027 33.125 14.0258 33.3225 13.6742 33.6742C13.3225 34.0258 13.125 34.5027 13.125 35C13.125 35.4973 13.3225 35.9742 13.6742 36.3258C14.0258 36.6775 14.5027 36.875 15 36.875H25C25.4973 36.875 25.9742 36.6775 26.3258 36.3258C26.6775 35.9742 26.875 35.4973 26.875 35C26.875 34.5027 26.6775 34.0258 26.3258 33.6742C25.9742 33.3225 25.4973 33.125 25 33.125H21.875V31.25H32.5C33.0745 31.25 33.6434 31.1368 34.1742 30.917C34.705 30.6971 35.1873 30.3748 35.5936 29.9686C35.9999 29.5623 36.3221 29.08 36.542 28.5492C36.7618 28.0184 36.875 27.4495 36.875 26.875V10C36.875 9.42547 36.7618 8.85656 36.542 8.32576C36.3221 7.79496 35.9999 7.31266 35.5936 6.90641C35.1873 6.50015 34.705 6.17789 34.1742 5.95803C33.6434 5.73816 33.0745 5.625 32.5 5.625ZM7.5 9.375H32.5C32.6658 9.375 32.8247 9.44085 32.9419 9.55806C33.0592 9.67527 33.125 9.83424 33.125 10V21.25H6.875V10C6.875 9.83424 6.94085 9.67527 7.05806 9.55806C7.17527 9.44085 7.33424 9.375 7.5 9.375ZM32.5 27.5H7.5C7.33424 27.5 7.17527 27.4342 7.05806 27.3169C6.94085 27.1997 6.875 27.0408 6.875 26.875V25H33.125V26.875C33.125 27.0408 33.0592 27.1997 32.9419 27.3169C32.8247 27.4342 32.6658 27.5 32.5 27.5Z" fill="#0075FF"/>
</svg>
