<svg width="40" height="40" viewBox="0 0 40 40" fill="none" xmlns="http://www.w3.org/2000/svg">
<path d="M35 11.25H33.125V10C33.125 8.83968 32.6641 7.72688 31.8436 6.90641C31.0231 6.08594 29.9103 5.625 28.75 5.625H6.25C5.08968 5.625 3.97688 6.08594 3.15641 6.90641C2.33594 7.72688 1.875 8.83968 1.875 10V23.75C1.875 24.9103 2.33594 26.0231 3.15641 26.8436C3.97688 27.6641 5.08968 28.125 6.25 28.125H21.25V30C21.25 31.1603 21.7109 32.2731 22.5314 33.0936C23.3519 33.9141 24.4647 34.375 25.625 34.375H35C36.1603 34.375 37.2731 33.9141 38.0936 33.0936C38.9141 32.2731 39.375 31.1603 39.375 30V15.625C39.375 14.4647 38.9141 13.3519 38.0936 12.5314C37.2731 11.7109 36.1603 11.25 35 11.25ZM6.25 24.375C6.08424 24.375 5.92527 24.3092 5.80806 24.1919C5.69085 24.0747 5.625 23.9158 5.625 23.75V10C5.625 9.83424 5.69085 9.67527 5.80806 9.55806C5.92527 9.44085 6.08424 9.375 6.25 9.375H28.75C28.9158 9.375 29.0747 9.44085 29.1919 9.55806C29.3092 9.67527 29.375 9.83424 29.375 10V11.25H25.625C24.4647 11.25 23.3519 11.7109 22.5314 12.5314C21.7109 13.3519 21.25 14.4647 21.25 15.625V24.375H6.25ZM35.625 30C35.625 30.1658 35.5592 30.3247 35.4419 30.4419C35.3247 30.5592 35.1658 30.625 35 30.625H25.625C25.4592 30.625 25.3003 30.5592 25.1831 30.4419C25.0658 30.3247 25 30.1658 25 30V15.625C25 15.4592 25.0658 15.3003 25.1831 15.1831C25.3003 15.0658 25.4592 15 25.625 15H35C35.1658 15 35.3247 15.0658 35.4419 15.1831C35.5592 15.3003 35.625 15.4592 35.625 15.625V30ZM19.375 32.5C19.375 32.9973 19.1775 33.4742 18.8258 33.8258C18.4742 34.1775 17.9973 34.375 17.5 34.375H13.75C13.2527 34.375 12.7758 34.1775 12.4242 33.8258C12.0725 33.4742 11.875 32.9973 11.875 32.5C11.875 32.0027 12.0725 31.5258 12.4242 31.1742C12.7758 30.8225 13.2527 30.625 13.75 30.625H17.5C17.9973 30.625 18.4742 30.8225 18.8258 31.1742C19.1775 31.5258 19.375 32.0027 19.375 32.5ZM33.125 19.375C33.125 19.8723 32.9275 20.3492 32.5758 20.7008C32.2242 21.0525 31.7473 21.25 31.25 21.25H29.375C28.8777 21.25 28.4008 21.0525 28.0492 20.7008C27.6975 20.3492 27.5 19.8723 27.5 19.375C27.5 18.8777 27.6975 18.4008 28.0492 18.0492C28.4008 17.6975 28.8777 17.5 29.375 17.5H31.25C31.7473 17.5 32.2242 17.6975 32.5758 18.0492C32.9275 18.4008 33.125 18.8777 33.125 19.375Z" fill="#0075FF"/>
</svg>
