<svg width="40" height="40" viewBox="0 0 40 40" fill="none" xmlns="http://www.w3.org/2000/svg">
<path d="M18.75 27.5C18.75 27.9973 18.5525 28.4742 18.2008 28.8258C17.8492 29.1775 17.3723 29.375 16.875 29.375H12.5C12.0027 29.375 11.5258 29.1775 11.1742 28.8258C10.8225 28.4742 10.625 27.9973 10.625 27.5C10.625 27.0027 10.8225 26.5258 11.1742 26.1742C11.5258 25.8225 12.0027 25.625 12.5 25.625H16.875C17.3723 25.625 17.8492 25.8225 18.2008 26.1742C18.5525 26.5258 18.75 27.0027 18.75 27.5ZM27.5 25.625H23.125C22.6277 25.625 22.1508 25.8225 21.7992 26.1742C21.4475 26.5258 21.25 27.0027 21.25 27.5C21.25 27.9973 21.4475 28.4742 21.7992 28.8258C22.1508 29.1775 22.6277 29.375 23.125 29.375H27.5C27.9973 29.375 28.4742 29.1775 28.8258 28.8258C29.1775 28.4742 29.375 27.9973 29.375 27.5C29.375 27.0027 29.1775 26.5258 28.8258 26.1742C28.4742 25.8225 27.9973 25.625 27.5 25.625ZM38.125 33.75C38.125 34.2473 37.9275 34.7242 37.5758 35.0758C37.2242 35.4275 36.7473 35.625 36.25 35.625H3.75C3.25272 35.625 2.77581 35.4275 2.42417 35.0758C2.07254 34.7242 1.875 34.2473 1.875 33.75C1.875 33.2527 2.07254 32.7758 2.42417 32.4242C2.77581 32.0725 3.25272 31.875 3.75 31.875H4.375V13.75C4.375 13.4018 4.47197 13.0605 4.65503 12.7643C4.83809 12.468 5.10003 12.2287 5.41147 12.0729C5.72292 11.9172 6.07158 11.8513 6.41839 11.8826C6.76519 11.9138 7.09643 12.0411 7.375 12.25L14.375 17.5V13.75C14.375 13.4018 14.472 13.0605 14.655 12.7643C14.8381 12.468 15.1 12.2287 15.4115 12.0729C15.7229 11.9172 16.0716 11.8513 16.4184 11.8826C16.7652 11.9138 17.0964 12.0411 17.375 12.25L22.5828 16.1562L24.2406 4.55781C24.3501 3.81451 24.7225 3.13509 25.2901 2.64285C25.8578 2.15062 26.583 1.87819 27.3344 1.875H30.1656C30.917 1.87819 31.6422 2.15062 32.2099 2.64285C32.7775 3.13509 33.1499 3.81451 33.2594 4.55781L35.6031 20.9844C35.6031 21 35.6219 21.1938 35.6219 21.25V31.875H36.2469C36.4934 31.8746 36.7375 31.9228 36.9654 32.0168C37.1932 32.1109 37.4003 32.2489 37.5747 32.4231C37.7492 32.5972 37.8876 32.8041 37.982 33.0317C38.0764 33.2594 38.125 33.5035 38.125 33.75ZM26.0047 18.7234L26.875 19.375H31.5875L29.6234 5.625H27.8766L26.0047 18.7234ZM8.125 31.875H31.875V23.125H26.25C25.8443 23.125 25.4496 22.9934 25.125 22.75L22.8781 21.0656H22.8687L18.125 17.5V21.25C18.125 21.5982 18.028 21.9395 17.845 22.2357C17.6619 22.532 17.4 22.7713 17.0885 22.9271C16.7771 23.0828 16.4284 23.1487 16.0816 23.1174C15.7348 23.0862 15.4036 22.9589 15.125 22.75L8.125 17.5V31.875Z" fill="#0075FF"/>
</svg>
