<svg width="40" height="40" viewBox="0 0 40 40" fill="none" xmlns="http://www.w3.org/2000/svg">
<path d="M35.625 8.75H25L20.8328 5.625C20.2913 5.22051 19.6338 5.00134 18.9578 5H11.875C11.0462 5 10.2513 5.32924 9.66529 5.91529C9.07924 6.50134 8.75 7.2962 8.75 8.125V11.25H5.625C4.7962 11.25 4.00134 11.5792 3.41529 12.1653C2.82924 12.7513 2.5 13.5462 2.5 14.375V31.875C2.5 32.7038 2.82924 33.4987 3.41529 34.0847C4.00134 34.6708 4.7962 35 5.625 35H29.5141C30.3057 34.9992 31.0647 34.6843 31.6245 34.1245C32.1843 33.5647 32.4992 32.8057 32.5 32.0141V28.75H35.7641C36.5557 28.7492 37.3147 28.4343 37.8745 27.8745C38.4343 27.3147 38.7492 26.5557 38.75 25.7641V11.875C38.75 11.0462 38.4208 10.2513 37.8347 9.66529C37.2487 9.07924 36.4538 8.75 35.625 8.75ZM28.75 31.25H6.25V15H12.5L17 18.375C17.3246 18.6184 17.7193 18.75 18.125 18.75H28.75V31.25ZM35 25H32.5V18.125C32.5 17.2962 32.1708 16.5013 31.5847 15.9153C30.9987 15.3292 30.2038 15 29.375 15H18.75L14.5828 11.875C14.0413 11.4705 13.3838 11.2513 12.7078 11.25H12.5V8.75H18.75L23.25 12.125C23.5746 12.3684 23.9693 12.5 24.375 12.5H35V25Z" fill="#0075FF"/>
</svg>
