<svg width="40" height="40" viewBox="0 0 40 40" fill="none" xmlns="http://www.w3.org/2000/svg">
<path d="M32.7938 10.9109C31.1157 9.22901 29.1212 7.89601 26.9254 6.98877C24.7296 6.08153 22.3758 5.61802 20 5.62495H19.9359C9.97656 5.65933 1.875 13.8687 1.875 23.9265V27.5C1.875 28.3288 2.20424 29.1236 2.79029 29.7097C3.37634 30.2957 4.1712 30.625 5 30.625H35C35.8288 30.625 36.6237 30.2957 37.2097 29.7097C37.7958 29.1236 38.125 28.3288 38.125 27.5V23.75C38.1315 21.3634 37.6635 18.9993 36.7483 16.7952C35.8331 14.5911 34.4888 12.5909 32.7938 10.9109ZM34.375 26.875H19.8938L27.15 16.7187C27.2936 16.5184 27.3964 16.2918 27.4525 16.0519C27.5085 15.8119 27.5168 15.5632 27.4767 15.32C27.4367 15.0768 27.3491 14.8439 27.2191 14.6346C27.089 14.4253 26.919 14.2436 26.7188 14.1C26.5185 13.9563 26.2919 13.8535 26.0519 13.7975C25.8119 13.7414 25.5632 13.7332 25.3201 13.7732C25.0769 13.8133 24.844 13.9008 24.6346 14.0309C24.4253 14.1609 24.2436 14.3309 24.1 14.5312L15.2844 26.875H5.625V23.9265C5.625 23.6578 5.625 23.3906 5.64688 23.125H8.75C9.24728 23.125 9.7242 22.9274 10.0758 22.5758C10.4275 22.2241 10.625 21.7472 10.625 21.25C10.625 20.7527 10.4275 20.2758 10.0758 19.9241C9.7242 19.5725 9.24728 19.375 8.75 19.375H6.34688C8.05156 14.1578 12.5969 10.2312 18.125 9.49839V12.5C18.125 12.9972 18.3225 13.4741 18.6742 13.8258C19.0258 14.1774 19.5027 14.375 20 14.375C20.4973 14.375 20.9742 14.1774 21.3258 13.8258C21.6775 13.4741 21.875 12.9972 21.875 12.5V9.49995C24.5794 9.85483 27.1269 10.9718 29.2203 12.7204C31.3136 14.4689 32.8662 16.777 33.6969 19.375H31.25C30.7527 19.375 30.2758 19.5725 29.9242 19.9241C29.5725 20.2758 29.375 20.7527 29.375 21.25C29.375 21.7472 29.5725 22.2241 29.9242 22.5758C30.2758 22.9274 30.7527 23.125 31.25 23.125H34.3594C34.3688 23.3328 34.375 23.5406 34.375 23.75V26.875Z" fill="#0075FF"/>
</svg>
