<svg width="40" height="40" viewBox="0 0 40 40" fill="none" xmlns="http://www.w3.org/2000/svg">
<path d="M31.2492 23.75C30.3543 23.7494 29.4722 23.9638 28.6774 24.375L25.3352 21.775C25.5169 21.2353 25.6144 20.6709 25.6242 20.1016L27.2414 19.5641C28.1561 20.4928 29.3649 21.0751 30.6614 21.2113C31.9578 21.3476 33.2613 21.0293 34.349 20.311C35.4368 19.5926 36.2413 18.5187 36.625 17.2729C37.0087 16.0271 36.9478 14.6867 36.4528 13.4808C35.9577 12.2749 35.0591 11.2784 33.9107 10.6617C32.7623 10.0449 31.4354 9.84608 30.1566 10.0993C28.8779 10.3525 27.7268 11.042 26.9001 12.0498C26.0734 13.0577 25.6224 14.3214 25.6242 15.625C25.6242 15.7984 25.6336 15.9703 25.6492 16.1406L24.4336 16.5453C23.9082 15.8702 23.2357 15.3237 22.4672 14.9477C21.6988 14.5716 20.8547 14.3757 19.9992 14.375C19.843 14.375 19.7055 14.375 19.5602 14.3937L18.8649 12.8312C19.8139 11.9311 20.4195 10.7284 20.5777 9.43005C20.7358 8.13166 20.4365 6.81875 19.7313 5.71717C19.0261 4.61558 17.959 3.7942 16.7136 3.39432C15.4683 2.99444 14.1225 3.04106 12.9078 3.52616C11.6931 4.01125 10.6854 4.9045 10.0581 6.05224C9.43076 7.19998 9.22303 8.53045 9.47063 9.81479C9.71823 11.0991 10.4057 12.257 11.4147 13.0893C12.4237 13.9216 13.6912 14.3762 14.9992 14.375C15.1555 14.375 15.293 14.375 15.4383 14.3562L16.1336 15.9187C15.3098 16.6964 14.7408 17.7051 14.5012 18.8123C14.2616 19.9195 14.3628 21.0733 14.7914 22.1219L11.4664 25.0766C10.3047 24.4353 8.95363 24.2254 7.65209 24.4839C6.35054 24.7424 5.1823 25.4528 4.35388 26.4894C3.52545 27.526 3.09017 28.8222 3.12498 30.1487C3.1598 31.4752 3.66247 32.7467 4.54413 33.7384C5.42579 34.7302 6.62968 35.3783 7.943 35.5682C9.25632 35.7581 10.5945 35.4776 11.721 34.7763C12.8475 34.0749 13.6898 32.9979 14.0989 31.7356C14.5081 30.4733 14.4579 29.107 13.957 27.8781L17.282 24.9234C18.1683 25.4139 19.1708 25.6552 20.1831 25.6219C21.1955 25.5887 22.1799 25.2819 23.032 24.7344L26.093 27.1187C25.6071 28.2284 25.4924 29.4654 25.766 30.6455C26.0396 31.8256 26.6869 32.8859 27.6116 33.6685C28.5362 34.4512 29.6889 34.9144 30.898 34.9892C32.1071 35.0641 33.3081 34.7466 34.3222 34.0841C35.3364 33.4215 36.1096 32.4492 36.5267 31.3118C36.9438 30.1745 36.9826 28.9329 36.6373 27.7717C36.292 26.6105 35.5811 25.5919 34.6103 24.8672C33.6395 24.1426 32.4606 23.7508 31.2492 23.75ZM31.2492 13.75C31.6201 13.75 31.9826 13.86 32.2909 14.066C32.5993 14.272 32.8396 14.5649 32.9815 14.9075C33.1234 15.2501 33.1605 15.6271 33.0882 15.9908C33.0159 16.3545 32.8373 16.6886 32.5751 16.9508C32.3128 17.213 31.9787 17.3916 31.615 17.464C31.2513 17.5363 30.8743 17.4992 30.5317 17.3573C30.1891 17.2154 29.8962 16.975 29.6902 16.6667C29.4842 16.3584 29.3742 15.9958 29.3742 15.625C29.3742 15.1277 29.5718 14.6508 29.9234 14.2992C30.275 13.9475 30.7519 13.75 31.2492 13.75ZM13.1242 8.75C13.1242 8.37916 13.2342 8.01665 13.4402 7.7083C13.6462 7.39996 13.9391 7.15964 14.2817 7.01772C14.6243 6.87581 15.0013 6.83868 15.365 6.91103C15.7287 6.98337 16.0628 7.16195 16.3251 7.42417C16.5873 7.6864 16.7659 8.02049 16.8382 8.3842C16.9105 8.74792 16.8734 9.12492 16.7315 9.46753C16.5896 9.81014 16.3493 10.103 16.0409 10.309C15.7326 10.515 15.3701 10.625 14.9992 10.625C14.5019 10.625 14.025 10.4275 13.6734 10.0758C13.3218 9.72419 13.1242 9.24728 13.1242 8.75ZM8.74923 31.875C8.37839 31.875 8.01587 31.765 7.70753 31.559C7.39919 31.353 7.15887 31.0601 7.01695 30.7175C6.87504 30.3749 6.83791 29.9979 6.91025 29.6342C6.9826 29.2705 7.16118 28.9364 7.4234 28.6742C7.68562 28.4119 8.01972 28.2334 8.38343 28.161C8.74715 28.0887 9.12415 28.1258 9.46676 28.2677C9.80937 28.4096 10.1022 28.65 10.3082 28.9583C10.5143 29.2666 10.6242 29.6292 10.6242 30C10.6242 30.4973 10.4267 30.9742 10.0751 31.3258C9.72342 31.6775 9.24651 31.875 8.74923 31.875ZM18.1242 20C18.1242 19.6292 18.2342 19.2666 18.4402 18.9583C18.6462 18.65 18.9391 18.4096 19.2817 18.2677C19.6243 18.1258 20.0013 18.0887 20.365 18.161C20.7287 18.2334 21.0628 18.412 21.3251 18.6742C21.5873 18.9364 21.7659 19.2705 21.8382 19.6342C21.9105 19.9979 21.8734 20.3749 21.7315 20.7175C21.5896 21.0601 21.3493 21.353 21.0409 21.559C20.7326 21.765 20.3701 21.875 19.9992 21.875C19.5019 21.875 19.025 21.6775 18.6734 21.3258C18.3218 20.9742 18.1242 20.4973 18.1242 20ZM31.2492 31.25C30.8784 31.25 30.5159 31.14 30.2075 30.934C29.8992 30.728 29.6589 30.4351 29.517 30.0925C29.375 29.7499 29.3379 29.3729 29.4103 29.0092C29.4826 28.6455 29.6612 28.3114 29.9234 28.0492C30.1856 27.7869 30.5197 27.6084 30.8834 27.536C31.2471 27.4637 31.6241 27.5008 31.9668 27.6427C32.3094 27.7846 32.6022 28.025 32.8082 28.3333C33.0143 28.6416 33.1242 29.0042 33.1242 29.375C33.1242 29.8723 32.9267 30.3492 32.5751 30.7008C32.2234 31.0525 31.7465 31.25 31.2492 31.25Z" fill="#0075FF"/>
</svg>
