<svg width="80" height="80" viewBox="0 0 80 80" fill="none" xmlns="http://www.w3.org/2000/svg">
<path d="M79.3378 33.7843L71.3597 17.8469C70.9942 17.1113 70.4873 16.4551 69.868 15.9156C69.2487 15.3762 68.5291 14.964 67.7505 14.7028C66.9718 14.4416 66.1493 14.3365 65.3299 14.3933C64.5106 14.4502 63.7105 14.6681 62.9753 15.0344L55.7316 18.6562L41.1566 13.9312C40.4045 13.6906 39.5961 13.6906 38.8441 13.9312L24.2691 18.6562L17.0253 15.0344C16.2902 14.6681 15.4901 14.4502 14.6708 14.3933C13.8514 14.3365 13.0289 14.4416 12.2502 14.7028C11.4716 14.964 10.752 15.3762 10.1327 15.9156C9.51339 16.4551 9.00649 17.1113 8.64097 17.8469L0.662845 33.7843C0.296546 34.5195 0.0787278 35.3196 0.0218442 36.1389C-0.0350393 36.9583 0.0701271 37.7808 0.331331 38.5595C0.592535 39.3381 1.00465 40.0577 1.54413 40.677C2.0836 41.2963 2.73984 41.8032 3.47534 42.1687L11.8097 46.3375L27.8035 58.0281C28.1824 58.3053 28.6094 58.5098 29.0628 58.6312L48.4378 63.6312C48.7443 63.7093 49.0591 63.7492 49.3753 63.75C50.3696 63.7491 51.3228 63.3534 52.0253 62.65L68.4691 46.2062L76.541 42.1687C78.0237 41.4277 79.1513 40.1281 79.6758 38.5558C80.2003 36.9834 80.0787 35.2671 79.3378 33.7843ZM61.1753 42.8937L52.5753 34.7687C51.8644 34.0961 50.9186 33.7281 49.9401 33.7433C48.9615 33.7585 48.0276 34.1556 47.3378 34.85C44.3191 37.8937 39.5066 40.1031 34.5847 37.8343L46.5191 26.2719H53.6191L61.6847 42.4062L61.1753 42.8937ZM14.7878 22.3031L18.9347 24.375L12.0597 38.0937L7.91284 36.0218L14.7878 22.3031ZM48.2253 55.8344L31.6347 51.5625L18.5097 41.9812L26.616 25.7812L40.0003 21.4406L40.5285 21.6125L28.1253 33.65L28.0847 33.6875C27.4237 34.3492 26.9197 35.1507 26.6097 36.0331C26.2998 36.9155 26.1918 37.8562 26.2938 38.7859C26.3957 39.7156 26.705 40.6105 27.1989 41.4048C27.6927 42.199 28.3585 42.8723 29.1472 43.375C35.6941 47.5593 43.5222 47.1469 49.8753 42.5219L55.8753 48.1937L48.2253 55.8344ZM67.9128 38.0937L61.0378 24.375L65.1847 22.3031L72.0441 36.0218L67.9128 38.0937ZM37.0472 68.4375C36.9241 68.9144 36.7083 69.3623 36.4121 69.7558C36.1159 70.1493 35.7451 70.4805 35.3208 70.7307C34.8965 70.9808 34.4272 71.1449 33.9395 71.2137C33.4518 71.2824 32.9553 71.2544 32.4785 71.1312L24.166 68.9843C23.7066 68.8658 23.274 68.6611 22.891 68.3812L15.2878 62.8125C14.5102 62.2164 13.9967 61.3397 13.8573 60.3698C13.7179 59.4 13.9636 58.4141 14.5418 57.6231C15.12 56.8321 15.9849 56.2989 16.9513 56.1375C17.9177 55.976 18.9089 56.1992 19.7128 56.7593L26.7347 61.8906L34.3535 63.8562C34.8317 63.9792 35.2809 64.1955 35.6754 64.4925C36.0698 64.7896 36.4017 65.1616 36.652 65.5873C36.9023 66.0129 37.066 66.4839 37.1339 66.973C37.2017 67.4621 37.1722 67.9598 37.0472 68.4375Z" fill="#0075FF"/>
</svg>
