<svg width="40" height="40" viewBox="0 0 40 40" fill="none" xmlns="http://www.w3.org/2000/svg">
<path d="M31.5453 8.54063C30.05 7.03028 28.2715 5.82971 26.3115 5.00767C24.3516 4.18562 22.2488 3.75824 20.1234 3.75H20C15.6902 3.75 11.557 5.46205 8.50952 8.50951C5.46205 11.557 3.75 15.6902 3.75 20V28.75C3.75 29.7446 4.14509 30.6984 4.84835 31.4017C5.55161 32.1049 6.50544 32.5 7.5 32.5H10C10.9946 32.5 11.9484 32.1049 12.6517 31.4017C13.3549 30.6984 13.75 29.7446 13.75 28.75V22.5C13.75 21.5054 13.3549 20.5516 12.6517 19.8483C11.9484 19.1451 10.9946 18.75 10 18.75H6.30625C6.54732 16.1436 7.52631 13.66 9.12848 11.5902C10.7306 9.52032 12.8896 7.95005 15.3523 7.06338C17.8151 6.17672 20.4795 6.0104 23.0334 6.58392C25.5873 7.15744 27.9247 8.44703 29.7719 10.3016C32.0295 12.5708 33.4182 15.561 33.6953 18.75H30C29.0054 18.75 28.0516 19.1451 27.3484 19.8483C26.6451 20.5516 26.25 21.5054 26.25 22.5V28.75C26.25 29.7446 26.6451 30.6984 27.3484 31.4017C28.0516 32.1049 29.0054 32.5 30 32.5H33.75C33.75 33.4946 33.3549 34.4484 32.6517 35.1517C31.9484 35.8549 30.9946 36.25 30 36.25H21.25C20.9185 36.25 20.6005 36.3817 20.3661 36.6161C20.1317 36.8505 20 37.1685 20 37.5C20 37.8315 20.1317 38.1495 20.3661 38.3839C20.6005 38.6183 20.9185 38.75 21.25 38.75H30C31.6576 38.75 33.2473 38.0915 34.4194 36.9194C35.5915 35.7473 36.25 34.1576 36.25 32.5V20C36.2581 17.8743 35.8468 15.768 35.0394 13.8015C34.2321 11.8351 33.0447 10.0474 31.5453 8.54063ZM10 21.25C10.3315 21.25 10.6495 21.3817 10.8839 21.6161C11.1183 21.8505 11.25 22.1685 11.25 22.5V28.75C11.25 29.0815 11.1183 29.3995 10.8839 29.6339C10.6495 29.8683 10.3315 30 10 30H7.5C7.16848 30 6.85054 29.8683 6.61612 29.6339C6.3817 29.3995 6.25 29.0815 6.25 28.75V21.25H10ZM30 30C29.6685 30 29.3505 29.8683 29.1161 29.6339C28.8817 29.3995 28.75 29.0815 28.75 28.75V22.5C28.75 22.1685 28.8817 21.8505 29.1161 21.6161C29.3505 21.3817 29.6685 21.25 30 21.25H33.75V30H30Z" fill="#0075FF"/>
</svg>
