<svg width="40" height="40" viewBox="0 0 40 40" fill="none" xmlns="http://www.w3.org/2000/svg">
<path d="M32.5 4.375H13.75C12.9212 4.375 12.1263 4.70424 11.5403 5.29029C10.9542 5.87634 10.625 6.6712 10.625 7.5V9.375H7.5C6.6712 9.375 5.87634 9.70424 5.29029 10.2903C4.70424 10.8763 4.375 11.6712 4.375 12.5V32.5C4.375 33.3288 4.70424 34.1237 5.29029 34.7097C5.87634 35.2958 6.6712 35.625 7.5 35.625H27.5C28.3288 35.625 29.1237 35.2958 29.7097 34.7097C30.2958 34.1237 30.625 33.3288 30.625 32.5V29.375H32.5C33.3288 29.375 34.1237 29.0458 34.7097 28.4597C35.2958 27.8737 35.625 27.0788 35.625 26.25V7.5C35.625 6.6712 35.2958 5.87634 34.7097 5.29029C34.1237 4.70424 33.3288 4.375 32.5 4.375ZM14.375 8.125H31.875V17.4563L30.3344 15.9156C29.7484 15.3298 28.9536 15.0007 28.125 15.0007C27.2964 15.0007 26.5016 15.3298 25.9156 15.9156L16.2063 25.625H14.375V8.125ZM26.875 31.875H8.125V13.125H10.625V26.25C10.625 27.0788 10.9542 27.8737 11.5403 28.4597C12.1263 29.0458 12.9212 29.375 13.75 29.375H26.875V31.875ZM21.5094 25.625L28.125 19.0094L31.875 22.7594V25.625H21.5094ZM16.875 13.75C16.875 13.1319 17.0583 12.5277 17.4017 12.0138C17.745 11.4999 18.2331 11.0994 18.8041 10.8629C19.3751 10.6264 20.0035 10.5645 20.6097 10.685C21.2158 10.8056 21.7727 11.1033 22.2097 11.5403C22.6467 11.9773 22.9444 12.5342 23.065 13.1403C23.1855 13.7465 23.1236 14.3749 22.8871 14.9459C22.6506 15.5169 22.2501 16.005 21.7362 16.3483C21.2223 16.6917 20.6181 16.875 20 16.875C19.1712 16.875 18.3763 16.5458 17.7903 15.9597C17.2042 15.3737 16.875 14.5788 16.875 13.75Z" fill="#0075FF"/>
</svg>
