<?xml version="1.0" encoding="UTF-8"?>
<svg version="1.1" viewBox="0 0 800 800" width="1280" height="1280" xmlns="http://www.w3.org/2000/svg">
<path transform="translate(397,143)" d="m0 0 20 1 27 4 22 6 26 10 22 12 17 12 13 11 19 19 13 17 9 15 11 22 7 19 6 23 3 16 1 9v38l-3 21-5 20-10 25-8 16-6 11-10 16-13 18-13 16-12 14-10 13-9 16-7 21-2 9-1 100-3 5-3 2-12 1-2 8-30 60-3 3-104 1-4-2-14-27-2-4v-6l4-6 4-2h7l6 5 8 17v2l83-1 5-12 16-32 2-3-163-1-7-6v-10l6-6 184-1v-26l-182 1-5-3-3-5v-6l7-8 6-1h176l1-20 1-4h-184l-5-5-6-16-6-20-9-17-10-13-10-11-9-11-13-17-13-20-13-23-9-20-6-17-7-30-2-22 1-25 4-24 6-23 8-22 8-16 12-19 12-16 9-10 10-10 11-9 18-13 17-10 15-7 20-7 25-6 22-3zm-15 23-22 3-25 6-24 10-18 10-17 12-13 12-12 12-10 13-10 15-10 18-9 24-6 25-2 18v29l3 20 5 19 8 21 12 23 16 24 14 19 13 15 12 15 7 10 8 15 8 24 1 6h169l5-2 4-17 8-18 10-16 9-11 12-14 8-10 13-18 13-20 9-16 7-15 6-16 4-15 3-25v-27l-3-24-6-23-10-24-10-18-10-14-11-13-16-16-13-10-15-10-16-8-16-7-16-5-25-5-9-1z" fill="#1A1A1A"/>
<path transform="translate(472,224)" d="m0 0 6 2 14 9 11 10 8 7 9 11 10 15 11 23 7 23 1 4v8l-7 7-7 1-6-5-8-25-9-21-7-11-7-9-4-5-8-7-10-9-8-6-7-7 1-5 8-9z" fill="#181818"/>
<path transform="translate(75,343)" d="m0 0h55l7 1 4 5v9l-3 5-3 3h-50l-11-1-4-4-1-3v-8l4-6z" fill="#151515"/>
<path transform="translate(660,343)" d="m0 0h47l16 1 2 3v14l-3 4-4 1h-55l-5-3-4-5v-7l4-7z" fill="#151515"/>
<path transform="translate(585,531)" d="m0 0 6 1 17 16 21 21 5 7-1 7-8 8h-5l-10-8-8-8-8-7-14-15-5-8 1-6 4-5z" fill="#1E1E1E"/>
<path transform="translate(172,118)" d="m0 0 7 1 37 37 4 6v6l-7 8-2 2-5-1-8-6-7-7-8-7-7-8-10-10-4-7 1-8 4-4z" fill="#1A1A1A"/>
<path transform="translate(207,531)" d="m0 0 6 1 7 8-1 8-9 10-5 6h-2l-2 4h-2v2l-8 7-10 10-6 4-9-3-4-7 1-7 9-11 25-25 8-6z" fill="#202020"/>
<path transform="translate(619,118)" d="m0 0 7 1 5 4 3 5-1 6-11 12-26 26-7 5-7-1-5-5-2-4 1-6 9-10 14-15 12-12z" fill="#212121"/>
<path transform="translate(394,26)" d="m0 0h7l6 2 2 4v60l-7 6-4 1-8-4-3-3v-61l4-4z" fill="#1C1C1C"/>
<path transform="translate(663,231)" d="m0 0h6l6 4 3 5-1 7-4 5-10 5-16 6h-6l-6-5-3-6 1-5 6-5 13-6z" fill="#1B1B1B"/>
<path transform="translate(642,444)" d="m0 0 6 1 21 9 5 3 4 5-1 7-7 9-5-1-25-10-6-5-2-3 1-6 6-7z" fill="#1C1C1C"/>
<path transform="translate(128,230)" d="m0 0 11 4 18 8 4 4 1 2v7l-4 6-3 2-10-1-19-8-8-7v-7l3-5 5-4z" fill="#1D1D1D"/>
<path transform="translate(505,74)" d="m0 0 9 1 5 3 1 2-1 11-8 20-5 6-2 1h-7l-6-3-3-4v-6l6-14 5-11 4-5z" fill="#1E1E1E"/>
<path transform="translate(284,74)" d="m0 0h7l6 7 9 21 1 8-3 5-5 3h-8l-6-7-9-19-1-9 3-5 3-3z" fill="#1E1E1E"/>
<path transform="translate(148,445)" d="m0 0 7 1 6 4 1 2v7l-6 8-26 10-6-1-5-5-1-8 3-6 14-7z" fill="#262626"/>
<path transform="translate(379,651)" d="m0 0h105v29l-1 1-184 1-5 2 4-5 184-1v-26h-103z" fill="#7F7F7F"/>
<path transform="translate(295,697)" d="m0 0 5 1h125l39 1-1 3-164-1z" fill="#7E7E7E"/>
<path transform="translate(198,276)" d="m0 0 1 3-6 18-5 19-2 11v59l3 17 3 12-1 4-7-28-2-12-1-23 2-25 6-29 8-24z" fill="#929292"/>
<path transform="translate(391,27)" d="m0 0 1 4-1 3 1 61-4-2-1-1v-61z" fill="#808080"/>
<path transform="translate(439,749)" d="m0 0v3l-1 1-59 1-23-1v-3z" fill="#7F7F7F"/>
<path transform="translate(660,343)" d="m0 0h47l16 1 1 3h-65l-1 4h-3l2-6z" fill="#838383"/>
<path transform="translate(75,343)" d="m0 0h55l7 1 2 3h-68z" fill="#858585"/>
<path transform="translate(163,132)" d="m0 0 12 12 8 7 22 22 5 2 3 1-2 2-5-1-8-6-7-7-8-7-7-8-10-10-3-4z" fill="#888"/>
<path transform="translate(723,360)" d="m0 0 2 1-3 4-4 1h-55l-3-2 60-1z" fill="#BFBFBF"/>
<path transform="translate(71,361)" d="m0 0 4 1v2h61l-1 2h-50l-11-1-3-2z" fill="#B5B5B5"/>
<path transform="translate(357,147)" d="m0 0h5l1 2-22 4-33 11-6 3-3-1 18-8 18-6z" fill="#A1A1A1"/>
<path transform="translate(576,545)" d="m0 0 31 31 2 5-7-6-8-7-14-15-4-6z" fill="#818181"/>
<path transform="translate(642,444)" d="m0 0 6 1 21 9 5 3 4 5-1 7-2 1v-9l-11-6-9-4-8-3-8-1z" fill="#9A9A9A"/>
<path transform="translate(397,143)" d="m0 0 20 1 9 1v1h-56v-1z" fill="#A8A8A8"/>
<path transform="translate(128,230)" d="m0 0 11 4 14 6-3 1-21-6h-7l4-4z" fill="#8C8C8C"/>
<path transform="translate(636,449)" d="m0 0 1 4v7l7 5v3l-6-2-6-7 1-6z" fill="#858585"/>
<path transform="translate(529,188)" d="m0 0 4 2 10 8 20 20-1 2-18-18-8-7-7-5z" fill="#aaa"/>
<path transform="translate(496,86)" d="m0 0 1 3-5 13v9l2 4h-3l-3-4v-6l6-14z" fill="#949494"/>
<path transform="translate(276,80)" d="m0 0 3 1 2 20-3-4-3-8z" fill="#828282"/>
<path transform="translate(207,531)" d="m0 0 6 1 5 5-1 2-4-3-13 1 5-5z" fill="#838383"/>
<path transform="translate(663,231)" d="m0 0h6l5 3v1h-5-3l-14 3v-2z" fill="#939393"/>
<path transform="translate(302,95)" d="m0 0 2 2 3 9-1 6-2 3h-2z" fill="#878787"/>
<path transform="translate(636,244)" d="m0 0h1v11l1 5-5-5-1-7z" fill="#8F8F8F"/>
<path transform="translate(176,120)" d="m0 0 5 1 15 15h-3l-10-10-7-4z" fill="#9D9D9D"/>
<path transform="translate(585,531)" d="m0 0 6 1 6 7-4-2-5-3-5 1-4 3-2-1z" fill="#A1A1A1"/>
<path transform="translate(505,74)" d="m0 0h5v2h-2v2l-7 3-3 2 2-5z" fill="#7C7C7C"/>
<path transform="translate(615,586)" d="m0 0 13 1-3 4h-5z" fill="#8F8F8F"/>
<path transform="translate(118,240)" d="m0 0h1l2 6 7 6 2 1v2l-5-2-7-6z" fill="#8C8C8C"/>
<path transform="translate(165,586)" d="m0 0 14 1-4 4-9-3z" fill="#8E8E8E"/>
<path transform="translate(662,255)" d="m0 0 3 1-12 5-4-1v-3l10-1z" fill="#7E7E7E"/>
<path transform="translate(330,729)" d="m0 0 1 3-1 8 1 6-3-4-1-2v-6z" fill="#9B9B9B"/>
<path transform="translate(642,444)" d="m0 0 6 1 6 3-4 1-11-2z" fill="#B5B5B5"/>
<path transform="translate(516,178)" d="m0 0 7 4 4 3-1 3-4-2-4-5-2-1z" fill="#878787"/>
<path transform="translate(357,147)" d="m0 0h5l1 2-15 2 1-2z" fill="#7E7E7E"/>
<path transform="translate(119,470)" d="m0 0 5 2 2 2 6 1-2 2-6-1z" fill="#aaa"/>
</svg>
