<svg width="40" height="40" viewBox="0 0 40 40" fill="none" xmlns="http://www.w3.org/2000/svg">
<path d="M33.75 13.125H26.875V6.25C26.875 5.75272 26.6775 5.27581 26.3258 4.92417C25.9742 4.57254 25.4973 4.375 25 4.375H6.25C5.75272 4.375 5.27581 4.57254 4.92417 4.92417C4.57254 5.27581 4.375 5.75272 4.375 6.25V25C4.375 25.4973 4.57254 25.9742 4.92417 26.3258C5.27581 26.6775 5.75272 26.875 6.25 26.875H13.125V33.75C13.125 34.2473 13.3225 34.7242 13.6742 35.0758C14.0258 35.4275 14.5027 35.625 15 35.625H33.75C34.2473 35.625 34.7242 35.4275 35.0758 35.0758C35.4275 34.7242 35.625 34.2473 35.625 33.75V15C35.625 14.5027 35.4275 14.0258 35.0758 13.6742C34.7242 13.3225 34.2473 13.125 33.75 13.125ZM8.125 23.125V8.125H23.125V13.125H15C14.5027 13.125 14.0258 13.3225 13.6742 13.6742C13.3225 14.0258 13.125 14.5027 13.125 15V23.125H8.125ZM16.875 19.5312L20.4688 23.125H16.875V19.5312ZM23.125 20.4688L19.5312 16.875H23.125V20.4688ZM31.875 31.875H16.875V26.875H25C25.4973 26.875 25.9742 26.6775 26.3258 26.3258C26.6775 25.9742 26.875 25.4973 26.875 25V16.875H31.875V31.875Z" fill="#0075FF"/>
</svg>
