<?xml version="1.0" encoding="UTF-8"?>
<svg version="1.1" viewBox="0 0 800 800" width="1280" height="1280" xmlns="http://www.w3.org/2000/svg">
<path transform="translate(641,76)" d="m0 0h7l6 4 2 3 1 80 23-1h49l9 1 4 5 1 6-4 7-8 8h-2v2l-7 6-7 8-34 34h-2l-2 4-2 2 1 5 18 36 6 13 12 36 6 26 5 32 1 17v27l-2 28-5 28-6 24-10 30-8 18-8 16-9 16-7 10-10 15-11 14-11 12-9 10-11 11-8 7-12 10-15 10-17 11-17 10-38 17-22 8-30 7-26 4-13 1h-56l-24-3-25-5-22-6-25-9-26-12-18-10-24-16-16-12-10-9-8-7-17-17-7-8-12-15-15-22-9-15-12-23-11-26-9-29-6-27-4-29-2-21v-18l4-37 6-31 7-25 9-25 7-16 12-22 11-18 12-17 11-14 14-15 16-16 8-7 13-11 17-12 25-15 21-11 25-10 21-7 25-6 29-5 30-2h20l28 2 30 5 27 7 24 8 23 10 4 5v9l-7 8-9-2-28-11-27-8-22-5-27-3-13-1h-30l-32 3-25 5-25 7-21 8-25 12-16 9-15 10-16 12-13 11-8 7-18 18-11 14-10 13-10 15-8 14-12 23-9 23-6 19-6 25-4 29-2 20v17l3 32 5 30 6 22 9 26 10 22 10 18 12 19 10 13 8 10 11 12 5 5v2l4 2 13 13 17 13 12 9 13 8 19 11 24 11 22 8 22 6 22 5 31 3h43l29-3 26-6 29-9 21-9 16-8 17-9 12-8 19-14 13-11 13-12 15-16 8-10 14-19 12-19 12-23 8-19 9-27 7-30 3-19 1-16v-35l-1-19-4-25-6-25-6-20-11-26-13-26-2-3-8 6-9 7h-10l-50-6-17-1-6 5 2 4 11 14 11 16 12 23 8 21 6 22 3 15 2 23v18l-2 26-5 23-8 24-8 18-8 15-8 12-9 12-9 10-7 8-13 12-16 12-19 12-23 11-14 5-21 6-30 5h-35l-24-3-22-5-20-7-25-12-15-9-17-13-14-12-12-12-13-17-10-15-12-23-8-21-7-27-4-25v-35l5-30 6-22 8-21 13-25 13-19 11-13 12-13 13-11 18-13 18-10 19-9 20-7 20-5 21-3 14-1h19l25 3 23 5 24 8 23 11 10 7 5 6-1 6-7 8-8-1-16-8-20-9-19-6-25-5-17-2h-15l-19 2-25 5-27 9-23 12-17 12-11 9-12 11-11 12-12 17-9 15-10 22-6 19-6 28-1 16v15l2 19 4 20 6 20 6 15 11 21 10 14 8 10 9 10 9 9 11 9 15 11 18 10 25 10 13 4 21 4 16 2h23l24-3 18-4 25-9 19-9 18-12 16-13 9-8 7-8 10-12 10-15 11-20 6-15 6-19 4-22 1-9v-32l-3-25-7-27-11-24-8-14-12-17-5-6-6 1-11 11-8 7-7 8-30 30-2 1 1 4 8 13 7 15 4 13 2 12 1 16-3 19-4 14-7 16-11 16-6 7-8 7-10 7-14 8-17 6-14 3-9 1h-11l-19-3-18-6-15-8-12-9-9-8-8-10-9-15-6-15-4-14-1-7v-28l4-16 8-19 6-10 10-13 9-9 14-10 17-8 17-5 14-2h18l16 3 8 5 3 4-1 7-6 6h-11l-10-1h-21l-14 3-16 7-14 11-10 10-7 10-7 16-3 12-1 9v10l3 18 8 19 9 13 8 8 12 9 17 8 11 3 8 1h17l14-3 13-5 13-7 10-9 9-10 8-13 4-10 4-15v-20l-4-17-5-13-6-10-5 1-12 12-6 5-5 6-8 7-16 17-7 6-5 5-5 4-7 1-5-3-3-4-1-6 4-7 4-5h2v-2l7-6 1-2h2l2-4 140-140 6-4 1-2v-13l-7-60 1-6 9-10 86-86zm-11 44-5 3-10 9-5 5-1 3h-2l-7 8-29 29-8 7 1 16 2 18 3 6 4 1 7-4 12-12 8-5 7 1 6 7-1 7-9 11-13 13-1 7 13 2 20 2h12l9-10 19-19v-2l3-1 7-8 5-4 9-9v-2l4-2v-2l3-1 6-9v-1l-57-1-5-2-3-7v-53zm-21 547-2 4 5-2v-2z" fill="#1B1B1B"/>
<path transform="translate(384,93)" d="m0 0h20l28 2 30 5 27 7 24 8 23 10 4 5v9l-7 8-9-2-28-11-27-8-22-5-27-3-13-1h-30l-32 3-25 5-25 7-21 8-25 12-16 9-15 10-16 12-13 11-8 7-18 18-11 14-10 13-10 15-8 14-12 23-9 23-6 19-6 25-4 29-2 20v17l3 32 5 30 6 22 9 26 10 22 10 18 12 19 10 13 8 10 11 12 5 5v2l4 2 13 13 17 13 12 9 13 8 19 11 24 11 22 8 22 6 22 5 31 3h43l29-3 26-6 29-9 21-9 16-8 17-9 12-8 19-14 9-7 1 2-7 6-1 2h2v-2l11-7h3v-2h3l1 2 3 2 4 3 6 1-14 14-19 14-32 20-16 8-29 13-22 8-30 7-26 4-13 1h-56l-24-3-25-5-22-6-25-9-26-12-18-10-24-16-16-12-10-9-8-7-17-17-7-8-12-15-15-22-9-15-12-23-11-26-9-29-6-27-4-29-2-21v-18l4-37 6-31 7-25 9-25 7-16 12-22 11-18 12-17 11-14 14-15 16-16 8-7 13-11 17-12 25-15 21-11 25-10 21-7 25-6 29-5zm225 574-2 4 5-2v-2z" fill="#1E1E1E"/>
<path transform="translate(603,657)" d="m0 0h3l1 2 3 2 4 3 6 1-14 14-9 7-1-3 3-1 2-9v-2l-10 5-7 4h-3l-1 2-1-9-3-1 14-11 5-3v2l-7 6-1 2h2v-2l11-7h3zm6 10-2 4 5-2v-2z" fill="#575757"/>
<path transform="translate(641,76)" d="m0 0 3 1-4 3-3 5-13 13-10 8-5 6-11 8-1 1 4 2-10 7-10 9-8 9-8 7-6 7h-2l-2 4-5 5-6 8h-4l1-4 7-8 87-87z" fill="#646464"/>
<path transform="translate(503,301)" d="m0 0h2v2l-8 6-3 3-5 2-5 8-18 18-6 5-6 8-22 22-11 9-8 9-4 3-3-1 6-7 85-85h3z" fill="#494949"/>
<path transform="translate(545,227)" d="m0 0 2 3 3 14 1 8-2 6-14 15-8 7-9 9-17 13-2-1 40-40 6-4 1-2v-13z" fill="#555"/>
<path transform="translate(680,162)" d="m0 0h49l9 1 4 5-1 2-5-2-1-1h-44l-17-1-3-1v2h-7l-5-3v-1z" fill="#4E4E4E"/>
<path transform="translate(652,79)" d="m0 0 4 4 1 79-2-1-2-24-1-30z" fill="#515151"/>
<path transform="translate(641,76)" d="m0 0 3 1-4 3-3 5-13 13-10 8-5 6-11 8h-3l40-40z" fill="#666"/>
<path transform="translate(720,378)" d="m0 0h1l2 15 1 17v27l-2 28-1 6h-1l1-42z" fill="#777"/>
<path transform="translate(503,301)" d="m0 0h2v2l-8 6-3 3-5 2-5 8-18 18-5 3-3-1 39-39h3z" fill="#6F6F6F"/>
<path transform="translate(384,93)" d="m0 0h20l28 2 20 3v1l-32-1-29-2-8-1z" fill="#6B6B6B"/>
<path transform="translate(571,687)" d="m0 0 8 1v6l-1 1 2 2-7 5h-2v-2h-9l1-4 2-1 1-4h2l1-2 2 1z" fill="#4C4C4C"/>
<path transform="translate(378,337)" d="m0 0h32l9 4v1l-17-1h-21l-14 3-7 2v-2l12-4z" fill="#555"/>
<path transform="translate(690,195)" d="m0 0 2 1-6 8-30 30-8 7-11 11-2-1 26-26 7-8 7-7h2l1-3 7-6z" fill="#4D4D4D"/>
<path transform="translate(362,503)" d="m0 0 10 3 13 2h17l14-3 3 1-11 5-5 1h-23l-16-6z" fill="#595959"/>
<path transform="translate(453,237)" d="m0 0h6l12 4 1 1 9 1 10 5 4 6v2l-5-2-23-11-14-5z" fill="#5C5C5C"/>
<path transform="translate(289,397)" d="m0 0 1 4v50l-2-3-2-11v-28z" fill="#464646"/>
<path transform="translate(380,223)" d="m0 0h26l3 1 2 4h-33l1-4z" fill="#4F4F4F"/>
<path transform="translate(407,116)" d="m0 0h30l10 1 3 2 8 1v2l3-1 10 2 5 4-11-2-18-4-27-3-13-1z" fill="#696969"/>
<path transform="translate(636,634)" d="m0 0 6 2 1 3 2 1-11 11-5-5v-3l5-5z" fill="#525252"/>
<path transform="translate(294,618)" d="m0 0 7 2 9 4 10 4 13 4 8 2 3 1v2l-9-1-16-5-17-7-8-4z" fill="#757575"/>
<path transform="translate(404,396)" d="m0 0 2 2-6 7-5 5-6 8-8 8-1 6 1 4-3-3-1-6 4-7 4-5h2v-2l7-6 1-2h2l2-4z" fill="#696969"/>
<path transform="translate(354,95)" d="m0 0 7 1-2 2-16 1-22 5-12 2-18 5-4-1 24-7 30-6z" fill="#A7A7A7"/>
<path transform="translate(358,618)" d="m0 0 16 1 7 1h32v2h-13v2h-15l-6-2-19-2z" fill="#575757"/>
<path transform="translate(587,388)" d="m0 0h1l2 8v55l-3 13h-1l1-13 1-9v-32l-2-21z" fill="#8E8E8E"/>
<path transform="translate(655,262)" d="m0 0 4 1 1 4h2v5l-3-4-2-3-8 6-9 7h-10l-15-2v-1l26-1 3-1v-2l8-6z" fill="#A6A6A6"/>
<path transform="translate(261,249)" d="m0 0 2 1-11 9-5 6-5 2-7 8-7 7-2 3-2-1 9-10 7-8 10-9z" fill="#9B9B9B"/>
<path transform="translate(367,94)" d="m0 0h16l18 2v1l-42 1v-3z" fill="#4F4F4F"/>
<path transform="translate(478,105)" d="m0 0 8 1 27 9 14 6-3 1-10-3v-2l-7-1-20-7-8-2z" fill="#686868"/>
<path transform="translate(539,179)" d="m0 0 1 2 4 1v34h-1z" fill="#7A7A7A"/>
<path transform="translate(196,402)" d="m0 0h1v40l-2-3-1-4v-30z" fill="#6B6B6B"/>
<path transform="translate(565,269)" d="m0 0h30l2 1 3-1-2 4-18-1-15-2z" fill="#646464"/>
<path transform="translate(279,113)" d="m0 0 3 1-5 3-18 7-13 6-4-1 21-10z" fill="#8B8B8B"/>
<path transform="translate(351,117)" d="m0 0h12v1l-25 3-22 5h-2l1-3 6-2 11-1 10-2z" fill="#A6A6A6"/>
<path transform="translate(490,131)" d="m0 0h7l12 5 9 3 4 3 6 2 2 2-9-2-25-10-6-2z" fill="#7A7A7A"/>
<path transform="translate(449,612)" d="m0 0 3 1h-2v2l-14 4-5 1h-17v-1l24-4z" fill="#8B8B8B"/>
<path transform="translate(574,673)" d="m0 0 2 1-7 6-5 5-5 3-10 3v2l-6 1 5-4 14-8z" fill="#949494"/>
<path transform="translate(310,402)" d="m0 0 1 3-2 14v10l2 18-3-4-1-4v-28z" fill="#8C8C8C"/>
<path transform="translate(334,334)" d="m0 0 2 1-10 8-6 7-5 2-1 4h-2v2l-4 2 2-4 9-10 9-8z" fill="#A9A9A9"/>
<path transform="translate(493,593)" d="m0 0 1 4-8 4-11 4h-3v2h-6l3-2 21-10z" fill="#898989"/>
<path transform="translate(405,206)" d="m0 0h9l26 4 4 2h-13l-10-2v-2l-8 1-8-2z" fill="#646464"/>
<path transform="translate(264,594)" d="m0 0 4 1 1 7h2l1 3 4 2v2l-5-2-12-9 4-1z" fill="#666"/>
<path transform="translate(439,228)" d="m0 0h2l1 6-13-2-11-2v-1z" fill="#636363"/>
<path transform="translate(425,637)" d="m0 0 13 1v1l-26 4-3-1h2l1-4 4 1z" fill="#7F7F7F"/>
<path transform="translate(470,459)" d="m0 0 1 4-5 8-3 5-15 15-2-1 12-12 7-10z" fill="#969696"/>
<path transform="translate(307,360)" d="m0 0 1 2-4 6 1 5-4 6-6 3 2-6 7-12z" fill="#636363"/>
<path transform="translate(352,637)" d="m0 0h10l9 2v2l2 1-14-1-7-2z" fill="#757575"/>
<path transform="translate(384,93)" d="m0 0h20l4 1v2h-17l-8-1z" fill="#D5D5D5"/>
<path transform="translate(285,589)" d="m0 0 12 6 13 7v1l-7-1-6-3v-2l-4-1-8-5z" fill="#7D7D7D"/>
<path transform="translate(610,435)" d="m0 0h1v15l-3 19h-1v-10z" fill="#6C6C6C"/>
<path transform="translate(545,227)" d="m0 0 2 3 3 14v7h-3l-2-19z" fill="#646464"/>
<path transform="translate(164,631)" d="m0 0 7 6 3 3v2l4 2 7 7-1 2-3-2v-2l-4-2-10-10-3-4z" fill="#D2D2D2"/>
<path transform="translate(407,116)" d="m0 0h30l1 3-18-1-13-1z" fill="#A3A3A3"/>
<path transform="translate(600,203)" d="m0 0 7 1v1h-8v2l-3 1-5 5-7 6-2-1 10-10z" fill="#757575"/>
<path transform="translate(337,728)" d="m0 0 14 1 7 2 3 2h-9l-14-3z" fill="#565656"/>
<path transform="translate(429,523)" d="m0 0 4 1-16 5h-5l2-4z" fill="#606060"/>
<path transform="translate(349,229)" d="m0 0h18v1l-23 4 1-4z" fill="#636363"/>
<path transform="translate(308,489)" d="m0 0 8 6 5 5v2h2l4 5h-3l-10-9-6-7z" fill="#959595"/>
<path transform="translate(615,275)" d="m0 0h25v3h-10l-15-2z" fill="#8A8A8A"/>
<path transform="translate(306,246)" d="m0 0 3 1-17 9-7 5-2-1 3-3h2l1-3 6-1v-2l8-4z" fill="#888"/>
<path transform="translate(363,321)" d="m0 0 3 1-22 9h-2v2l-6 1 3-3 15-7z" fill="#bbb"/>
<path transform="translate(445,212)" d="m0 0 10 2 16 5v2l-5-1-12-3-7-2v-2z" fill="#989898"/>
<path transform="translate(263,728)" d="m0 0 5 1 16 5 8 4-3 1-24-9z" fill="#8F8F8F"/>
<path transform="translate(594,121)" d="m0 0 7 1-4 4-6 4h-3l1-4z" fill="#515151"/>
<path transform="translate(358,618)" d="m0 0 16 1 13 2-1 2h-6l-1-1-19-2z" fill="#828282"/>
<path transform="translate(342,518)" d="m0 0h6l9 4 5 2-1 3-15-6z" fill="#858585"/>
<path transform="translate(245,554)" d="m0 0 7 6 15 15-4-1-18-18z" fill="#D5D5D5"/>
<path transform="translate(318,218)" d="m0 0 3 1-1 2-11 3h-3v2h-4v2h-5l4-3z" fill="#929292"/>
<path transform="translate(422,322)" d="m0 0 5 3 3 4-1 7-3 2-1-12-3-2z" fill="#8A8A8A"/>
<path transform="translate(354,95)" d="m0 0 7 1-2 2-24 1v-1z" fill="#949494"/>
<path transform="translate(200,693)" d="m0 0h4v2l9 3 4 4v2l-5-2-12-8z" fill="#757575"/>
<path transform="translate(327,631)" d="m0 0 6 1 8 2 3 1v2l-9-1-6-2v-2z" fill="#575757"/>
<path transform="translate(533,562)" d="m0 0h3l-2 5-6 4h-2-3z" fill="#373737"/>
<path transform="translate(415,385)" d="m0 0 2 4-8 7-3-1 6-7z" fill="#737373"/>
<path transform="translate(286,431)" d="m0 0 1 2h2l1 18-2-3-2-11z" fill="#C3C3C3"/>
<path transform="translate(371,319)" d="m0 0h15v1l-18 3-4-1z" fill="#585858"/>
<path transform="translate(503,301)" d="m0 0h2v2l-8 6-3 3-1-2 2-5 3-2h2z" fill="#494949"/>
<path transform="translate(237,272)" d="m0 0v3l-9 9v-3zm-11 12m-3 1 3 1-5 5-2-1z" fill="#4D4D4D"/>
<path transform="translate(521,573)" d="m0 0 1 2-5 4h-2v2l-10 7v-3l13-10z" fill="#D1D1D1"/>
<path transform="translate(564,520)" d="m0 0 1 4h-2l-1 4-4 7-3 4-2-1 8-13z" fill="#A1A1A1"/>
<path transform="translate(301,107)" d="m0 0 4 1-19 6-4-1 2-2 14-3z" fill="#595959"/>
<path transform="translate(478,420)" d="m0 0 3 1v6h-2l1 5 1 4-4 2z" fill="#585858"/>
<path transform="translate(179,377)" d="m0 0h2v8l-2 4-1 6h-1v-8z" fill="#838383"/>
<path transform="translate(404,396)" d="m0 0 2 2-6 7-5 2v-2h2l2-4z" fill="#A2A2A2"/>
<path transform="translate(135,216)" d="m0 0 1 2-5 8h-2l-2 5-4 3 2-4z" fill="#aaa"/>
<path transform="translate(279,113)" d="m0 0 3 1-5 3-8 3h-3v-2z" fill="#7C7C7C"/>
<path transform="translate(241,154)" d="m0 0 2 1-14 9-2-1 5-5z" fill="#919191"/>
<path transform="translate(188,655)" d="m0 0 8 6 5 5-5-2-4-2-4-5z" fill="#979797"/>
<path transform="translate(640,636)" d="m0 0 3 1v2l2 1-4 3h-4l2-6z" fill="#9B9B9B"/>
<path transform="translate(261,249)" d="m0 0 2 1-11 9-3 2v-3z" fill="#D5D5D5"/>
<path transform="translate(568,223)" d="m0 0 8 1-5 5-3 1z" fill="#DADADA"/>
<path transform="translate(437,117)" d="m0 0h10l3 3-3 1-9-2z" fill="#595959"/>
<path transform="translate(478,105)" d="m0 0 8 1 9 3v1l-8-1-8-2z" fill="#8B8B8B"/>
<path transform="translate(289,397)" d="m0 0 1 4-1 12h-3l1-9z" fill="#CACACA"/>
<path transform="translate(320,724)" d="m0 0 9 1 8 2v1h-9l-8-3z" fill="#A5A5A5"/>
<path transform="translate(276,609)" d="m0 0 9 3 2 1v2l3 1-2 1-12-7z" fill="#959595"/>
<path transform="translate(472,220)" d="m0 0 13 5 4 3h-5l-4-3-8-3z" fill="#B5B5B5"/>
<path transform="translate(512,115)" d="m0 0 15 6-3 1-10-3v-2h-2z" fill="#AFAFAF"/>
<path transform="translate(622,254)" d="m0 0h11v2h-2v2l-9-3z" fill="#565656"/>
<path transform="translate(431,209)" d="m0 0 9 1 4 2h-13z" fill="#A3A3A3"/>
</svg>
