<svg width="80" height="80" viewBox="0 0 80 80" fill="none" xmlns="http://www.w3.org/2000/svg">
<path d="M56.2504 72.5C56.2504 73.4946 55.8553 74.4484 55.1521 75.1516C54.4488 75.8549 53.495 76.25 52.5004 76.25H27.5004C26.5059 76.25 25.552 75.8549 24.8488 75.1516C24.1455 74.4484 23.7504 73.4946 23.7504 72.5C23.7504 71.5054 24.1455 70.5516 24.8488 69.8484C25.552 69.1451 26.5059 68.75 27.5004 68.75H52.5004C53.495 68.75 54.4488 69.1451 55.1521 69.8484C55.8553 70.5516 56.2504 71.5054 56.2504 72.5ZM68.7504 32.5C68.7618 36.8569 67.7776 41.1587 65.8728 45.0772C63.968 48.9956 61.193 52.427 57.7598 55.1094C57.2948 55.4636 56.9171 55.9195 56.6555 56.4422C56.3939 56.9649 56.2553 57.5405 56.2504 58.125V58.75C56.2504 60.4076 55.5919 61.9973 54.4198 63.1694C53.2477 64.3415 51.658 65 50.0004 65H30.0004C28.3428 65 26.7531 64.3415 25.581 63.1694C24.4089 61.9973 23.7504 60.4076 23.7504 58.75V58.125C23.7497 57.5502 23.6169 56.9833 23.3623 56.468C23.1076 55.9527 22.7379 55.5028 22.2817 55.1531C18.8578 52.4862 16.0854 49.0755 14.1743 45.179C12.2631 41.2826 11.2633 37.0024 11.2504 32.6625C11.166 17.0906 23.7504 4.125 39.3098 3.75C43.143 3.65789 46.9559 4.33348 50.5242 5.73701C54.0924 7.14054 57.3438 9.24364 60.0871 11.9226C62.8303 14.6015 65.01 17.8021 66.4978 21.336C67.9856 24.8699 68.7515 28.6657 68.7504 32.5ZM61.2504 32.5C61.2513 29.6655 60.685 26.8594 59.585 24.2471C58.485 21.6347 56.8734 19.2688 54.8453 17.2887C52.8171 15.3086 50.4132 13.7542 47.7753 12.7171C45.1373 11.68 42.3185 11.1812 39.4848 11.25C27.9879 11.525 18.6879 21.1094 18.7504 32.6187C18.7611 35.8263 19.501 38.9895 20.914 41.8692C22.327 44.7488 24.3762 47.2695 26.9067 49.2406C28.1815 50.2245 29.2293 51.4715 29.9789 52.8968C30.7285 54.3221 31.1622 55.8921 31.2504 57.5H48.7817C48.8717 55.8889 49.306 54.3159 50.0553 52.8868C50.8046 51.4578 51.8515 50.2059 53.1254 49.2156C55.6632 47.232 57.7143 44.695 59.1224 41.7981C60.5305 38.9012 61.2584 35.721 61.2504 32.5ZM54.9785 30.8375C54.6468 28.0315 53.5372 25.3742 51.7752 23.1654C50.0131 20.9567 47.6688 19.2844 45.0067 18.3375C44.0762 18.0335 43.0637 18.1053 42.1855 18.5378C41.3073 18.9702 40.633 19.7288 40.3066 20.6517C39.9802 21.5746 40.0276 22.5885 40.4387 23.4769C40.8498 24.3652 41.592 25.0577 42.5067 25.4062C43.8444 25.8752 45.0243 26.709 45.9129 27.8135C46.8015 28.918 47.3633 30.2491 47.5348 31.6562C47.6442 32.645 48.1419 33.5498 48.9184 34.1716C49.3029 34.4795 49.7443 34.7086 50.2173 34.8459C50.6904 34.9833 51.1858 35.026 51.6754 34.9719C52.165 34.9177 52.6391 34.7676 53.0707 34.5302C53.5023 34.2928 53.8829 33.9727 54.1908 33.5883C54.4987 33.2038 54.7278 32.7624 54.8651 32.2893C55.0024 31.8163 55.0452 31.3208 54.9911 30.8312L54.9785 30.8375Z" fill="#0075FF"/>
</svg>
