<svg width="251" height="24" viewBox="0 0 251 24" fill="none" xmlns="http://www.w3.org/2000/svg">
<g clip-path="url(#clip0_2452_308)">
<path d="M6.44319 12.2151C7.31557 12.8841 7.88374 13.7942 8.07149 14.8842C8.35365 17.0874 7.41097 19.5054 6.09668 21.2352C5.81977 21.5896 5.52051 21.9237 5.20897 22.2479C5.18068 22.2775 5.15238 22.3072 5.12324 22.3377C4.72191 22.7562 4.30954 23.139 3.84328 23.484C3.76522 23.5426 3.68907 23.6038 3.61301 23.665C3.34375 23.8766 3.11919 24.0353 2.76545 23.9933C2.58686 23.9337 2.4966 23.8781 2.37275 23.7377C2.29258 23.5328 2.28036 23.363 2.31664 23.1455C2.40376 22.9475 2.51828 22.7696 2.63455 22.5876C3.20042 21.6594 3.71106 20.62 3.96228 19.555C3.93218 19.5503 3.90208 19.5456 3.87106 19.5407C2.7481 19.3603 2.7481 19.3603 2.26678 19.1062C2.21689 19.0806 2.16701 19.0549 2.11562 19.0285C1.755 18.8314 1.46373 18.5937 1.16969 18.3083C1.13851 18.2808 1.10733 18.2533 1.07521 18.225C0.487919 17.6894 0.0736058 16.764 0.0117988 15.9745C-0.0379668 14.7016 0.217538 13.7042 1.06138 12.7162C2.46964 11.2132 4.78559 11.0643 6.44319 12.2151Z" fill="white"/>
<path d="M6.55468 0.85442C7.41869 1.52361 7.92636 2.48871 8.08811 3.55974C8.09223 3.62145 8.09634 3.68316 8.10058 3.74675C8.10315 3.78499 8.10572 3.82324 8.10837 3.86265C8.14615 4.91581 7.77101 5.86325 7.08141 6.65154C7.00645 6.73134 6.93064 6.81034 6.85389 6.88841C6.81969 6.92325 6.78549 6.95809 6.75026 6.99399C6.01759 7.69137 4.99255 8.05612 3.98606 8.03242C2.81633 7.97272 1.80981 7.5298 0.990344 6.68037C0.349272 5.93055 -0.00967693 5.01969 0.000198524 4.03037C0.000648502 3.97586 0.00109848 3.92135 0.00156209 3.86519C0.0212086 2.94392 0.36418 2.09829 0.969501 1.40296C0.991679 1.37372 1.01386 1.34447 1.03671 1.31433C2.35816 -0.384676 4.95272 -0.324301 6.55468 0.85442Z" fill="white"/>
<path d="M84.3408 4.46265C85.3119 4.46265 86.2829 4.46265 87.2834 4.46265C87.8914 5.59538 88.4958 6.72999 89.0995 7.86499C89.2719 8.18599 89.4442 8.50699 89.6218 8.83771C89.7866 9.14827 89.9513 9.45884 90.1211 9.77881C90.2732 10.0639 90.4254 10.349 90.5822 10.6427C90.9393 11.4037 91.1586 12.1019 91.3294 12.9225C91.5722 12.9225 91.8149 12.9225 92.0651 12.9225C92.1514 12.6257 92.2377 12.3289 92.3266 12.0231C92.9111 10.4113 93.6859 8.95572 94.5019 7.45119C94.6565 7.16291 94.811 6.87463 94.9703 6.57762C95.349 5.8718 95.7298 5.16711 96.1111 4.46265C97.0821 4.46265 98.0532 4.46265 99.0537 4.46265C99.0537 9.07513 99.0537 13.6876 99.0537 18.4399C98.3254 18.4399 97.5971 18.4399 96.8467 18.4399C96.7254 15.5267 96.604 12.6136 96.4789 9.61214C95.2651 12.0398 94.0513 14.4674 92.8007 16.9686C92.0724 16.9686 91.3441 16.9686 90.5938 16.9686C89.5014 14.7837 88.4089 12.5989 87.2834 10.3478C87.1773 12.4603 87.1773 12.4603 87.0744 14.5731C87.0604 14.8382 87.0464 15.1034 87.032 15.3766C87.0185 15.6463 87.005 15.9159 86.9911 16.1938C86.9151 16.9729 86.7569 17.6865 86.5477 18.4399C85.8195 18.4399 85.0912 18.4399 84.3408 18.4399C84.3408 13.8274 84.3408 9.2149 84.3408 4.46265Z" fill="white"/>
<path d="M238.457 4.46265C241.032 4.46265 241.032 4.46265 241.773 5.03539C241.966 5.29872 242.159 5.56205 242.358 5.83336C242.575 6.12211 242.793 6.41086 243.017 6.70837C243.343 7.1671 243.343 7.1671 243.675 7.63511C243.897 7.93239 244.119 8.22968 244.347 8.53598C245.5 10.0921 246.577 11.6775 247.653 13.2904C247.774 10.3772 247.895 7.46407 248.02 4.46265C248.87 4.46265 249.72 4.46265 250.595 4.46265C250.595 9.07513 250.595 13.6876 250.595 18.4399C248.02 18.4399 248.02 18.4399 247.068 17.5361C246.771 17.1308 246.484 16.7189 246.204 16.3019C245.974 15.9806 245.974 15.9806 245.739 15.6529C245.423 15.2108 245.11 14.7661 244.801 14.3191C244.361 13.6852 243.91 13.0613 243.453 12.4398C242.763 11.5015 242.08 10.5574 241.4 9.61214C241.278 12.5253 241.157 15.4384 241.032 18.4399C240.182 18.4399 239.332 18.4399 238.457 18.4399C238.457 13.8274 238.457 9.2149 238.457 4.46265Z" fill="white"/>
<path d="M169.099 5.06034C171.079 6.24614 172.224 7.67011 172.8 9.91099C173.153 12.1452 172.654 13.8817 171.473 15.7875C170.444 17.1434 169.443 17.9228 167.835 18.4398C165.383 18.665 162.885 18.8896 160.846 17.3364C159.021 15.5076 157.861 14.1823 157.812 11.5202C157.847 9.47107 158.215 8.2006 159.697 6.71267C162.358 4.2957 165.665 3.48079 169.099 5.06034ZM161.582 8.14085C160.613 9.44301 160.394 10.4406 160.478 12.026C160.732 13.6803 161.342 14.4666 162.685 15.4973C164.086 16.3347 165.053 16.3064 166.636 16.0921C167.997 15.7201 168.695 15.0293 169.674 14.026C170.36 12.6534 170.246 11.1067 170.042 9.61213C169.421 8.3451 168.536 7.59345 167.306 6.89945C165.012 6.34002 163.406 6.66618 161.582 8.14085Z" fill="white"/>
<path d="M224.273 4.89948C226.091 6.1851 227.399 7.49369 228.158 9.61219C228.421 11.8222 228.329 13.6079 227.055 15.4973C225.599 17.1888 224.256 18.2956 221.99 18.5577C219.565 18.6492 217.63 18.445 215.652 16.9686C213.674 14.8863 213.254 13.1901 213.306 10.3651C213.588 8.09394 214.668 6.78214 216.434 5.40523C218.843 4.09591 221.689 4.00694 224.273 4.89948ZM216.618 8.7616C215.892 10.2411 215.704 11.3069 216.02 12.9226C216.68 14.2681 217.267 14.9681 218.48 15.8422C220.095 16.3602 221.377 16.3106 223.009 15.8652C224.272 15.0853 225.145 14.3585 225.583 12.9226C225.752 11.1803 225.759 10.338 224.986 8.7616C223.744 7.35717 222.662 6.76425 220.802 6.53169C218.941 6.76425 217.859 7.35717 216.618 8.7616Z" fill="white"/>
<path d="M51.4544 4.42065C51.8685 4.42258 52.2826 4.42451 52.7093 4.42649C53.1562 4.42768 53.6031 4.42886 54.0635 4.43008C54.5341 4.43317 55.0047 4.43625 55.4895 4.43942C55.9615 4.44108 56.4336 4.44274 56.9199 4.44445C58.0906 4.4488 59.2614 4.45487 60.4321 4.46241C60.4321 5.1907 60.4321 5.91898 60.4321 6.66934C58.0045 6.66934 55.5769 6.66934 53.0757 6.66934C53.0757 7.88315 53.0757 9.09696 53.0757 10.3476C55.2606 10.3476 57.4454 10.3476 59.6965 10.3476C59.6965 11.0758 59.6965 11.8041 59.6965 12.5545C57.5116 12.5545 55.3268 12.5545 53.0757 12.5545C53.0757 13.7683 53.0757 14.9821 53.0757 16.2327C55.6247 16.2327 58.1737 16.2327 60.8 16.2327C60.8 16.961 60.8 17.6893 60.8 18.4396C59.34 18.4487 57.88 18.4554 56.42 18.4598C55.9229 18.4617 55.4259 18.4642 54.9289 18.4674C54.2159 18.4718 53.5028 18.4737 52.7898 18.4755C52.1455 18.4784 52.1455 18.4784 51.4881 18.4814C50.501 18.4396 50.501 18.4396 50.1331 18.0718C50.096 17.0954 50.0818 16.1288 50.0843 15.1522C50.0839 14.8597 50.0836 14.5672 50.0832 14.2658C50.083 13.6461 50.0837 13.0265 50.0852 12.4068C50.0872 11.4551 50.0852 10.5033 50.0829 9.55156C50.0831 8.95098 50.0836 8.3504 50.0843 7.74981C50.0835 7.46322 50.0828 7.17663 50.082 6.88136C50.0926 4.4803 50.0926 4.4803 51.4544 4.42065Z" fill="white"/>
<path d="M38.8459 5.01439C39.3352 5.2875 39.3352 5.2875 39.8344 5.56612C39.6131 6.30929 39.3662 7.04517 39.0988 7.77305C38.7347 7.95512 38.7347 7.95512 38.3632 8.14087C37.9156 7.9588 37.468 7.77673 37.0068 7.58914C35.4461 6.95858 34.4707 7.03287 32.8458 7.40523C32.8458 8.01213 32.8458 8.61904 32.8458 9.24433C33.0858 9.31119 33.3257 9.37804 33.5729 9.44692C37.8805 10.6859 37.8805 10.6859 39.4206 12.072C40.0317 13.3281 40.0791 14.513 39.8344 15.8651C39.0355 17.1776 38.3051 17.8726 36.8919 18.4399C34.2267 18.7673 31.7257 18.6478 29.5354 16.9686C29.2927 16.6044 29.0499 16.2403 28.7998 15.8651C29.1639 15.2582 29.5281 14.6513 29.9033 14.026C30.0901 14.128 30.2769 14.2299 30.4694 14.3349C32.2637 15.2792 33.8245 15.9979 35.9034 15.7732C36.1082 15.6821 36.313 15.5911 36.5241 15.4973C36.6454 15.1332 36.7668 14.769 36.8919 14.3938C35.9923 13.0445 35.5431 13.0256 34.0183 12.6007C32.2208 12.0296 30.9953 11.5992 29.9033 9.97998C29.4036 8.36332 29.3833 7.70394 30.1561 6.18682C32.2388 3.76646 36.0181 3.79168 38.8459 5.01439Z" fill="white"/>
<path d="M147.1 4.96833C147.974 5.56604 147.974 5.56604 148.709 6.30168C148.64 7.03732 148.64 7.03732 148.341 7.77297C147.977 8.01573 147.613 8.25849 147.238 8.50861C147.064 8.33412 146.889 8.15964 146.709 7.97987C145.341 7.14527 144.048 6.99588 142.456 7.03732C141.011 7.49242 140.434 7.89032 139.537 9.10632C139.024 10.7341 138.977 12.0288 139.514 13.6581C140.612 14.9136 141.388 15.4006 142.985 15.865C144.526 15.865 145.479 15.3915 146.87 14.7616C147.721 14.8075 147.721 14.8075 148.341 15.1294C148.584 15.4935 148.827 15.8577 149.077 16.2329C146.482 18.3956 144.721 18.7291 141.353 18.4398C139.137 17.6742 137.759 16.3239 136.64 14.2788C135.978 12.2223 135.989 10.7444 136.571 8.66953C138.862 4.73249 142.798 3.33638 147.1 4.96833Z" fill="white"/>
<path d="M196.158 4.46265C197.008 4.46265 197.858 4.46265 198.733 4.46265C198.733 8.34684 198.733 12.231 198.733 16.2329C200.675 16.2329 202.617 16.2329 204.618 16.2329C204.618 16.9612 204.618 17.6895 204.618 18.4399C201.826 18.4399 199.035 18.4399 196.158 18.4399C196.158 13.8274 196.158 9.2149 196.158 4.46265Z" fill="white"/>
<path d="M110.458 4.46265C111.308 4.46265 112.157 4.46265 113.033 4.46265C113.033 9.07513 113.033 13.6876 113.033 18.4399C112.183 18.4399 111.333 18.4399 110.458 18.4399C110.458 13.8274 110.458 9.2149 110.458 4.46265Z" fill="white"/>
</g>
<defs>
<clipPath id="clip0_2452_308">
<rect width="250.8" height="24" fill="white"/>
</clipPath>
</defs>
</svg>
