<svg width="40" height="40" viewBox="0 0 40 40" fill="none" xmlns="http://www.w3.org/2000/svg">
<path d="M36.25 17.5H21.25V13.75H22.5C23.163 13.75 23.7989 13.4866 24.2678 13.0178C24.7366 12.5489 25 11.913 25 11.25V6.25C25 5.58696 24.7366 4.95107 24.2678 4.48223C23.7989 4.01339 23.163 3.75 22.5 3.75H17.5C16.837 3.75 16.2011 4.01339 15.7322 4.48223C15.2634 4.95107 15 5.58696 15 6.25V11.25C15 11.913 15.2634 12.5489 15.7322 13.0178C16.2011 13.4866 16.837 13.75 17.5 13.75H18.75V17.5H3.75C3.41848 17.5 3.10054 17.6317 2.86612 17.8661C2.6317 18.1005 2.5 18.4185 2.5 18.75C2.5 19.0815 2.6317 19.3995 2.86612 19.6339C3.10054 19.8683 3.41848 20 3.75 20H8.75V25H7.5C6.83696 25 6.20107 25.2634 5.73223 25.7322C5.26339 26.2011 5 26.837 5 27.5V32.5C5 33.163 5.26339 33.7989 5.73223 34.2678C6.20107 34.7366 6.83696 35 7.5 35H12.5C13.163 35 13.7989 34.7366 14.2678 34.2678C14.7366 33.7989 15 33.163 15 32.5V27.5C15 26.837 14.7366 26.2011 14.2678 25.7322C13.7989 25.2634 13.163 25 12.5 25H11.25V20H28.75V25H27.5C26.837 25 26.2011 25.2634 25.7322 25.7322C25.2634 26.2011 25 26.837 25 27.5V32.5C25 33.163 25.2634 33.7989 25.7322 34.2678C26.2011 34.7366 26.837 35 27.5 35H32.5C33.163 35 33.7989 34.7366 34.2678 34.2678C34.7366 33.7989 35 33.163 35 32.5V27.5C35 26.837 34.7366 26.2011 34.2678 25.7322C33.7989 25.2634 33.163 25 32.5 25H31.25V20H36.25C36.5815 20 36.8995 19.8683 37.1339 19.6339C37.3683 19.3995 37.5 19.0815 37.5 18.75C37.5 18.4185 37.3683 18.1005 37.1339 17.8661C36.8995 17.6317 36.5815 17.5 36.25 17.5ZM17.5 6.25H22.5V11.25H17.5V6.25ZM12.5 32.5H7.5V27.5H12.5V32.5ZM32.5 32.5H27.5V27.5H32.5V32.5Z" fill="#0075FF"/>
</svg>
