<svg width="40" height="40" viewBox="0 0 40 40" fill="none" xmlns="http://www.w3.org/2000/svg">
<g clip-path="url(#clip0_2550_441)">
<path d="M24.6853 27.2968C25.8388 26.1674 26.6296 24.7201 26.9571 23.1394C27.2845 21.5587 27.1336 19.9162 26.5238 18.4216C25.9139 16.927 24.8726 15.6479 23.5327 14.7476C22.1929 13.8472 20.6152 13.3663 19.0009 13.3663C17.3867 13.3663 15.809 13.8472 14.4692 14.7476C13.1293 15.6479 12.088 16.927 11.4781 18.4216C10.8683 19.9162 10.7174 21.5587 11.0448 23.1394C11.3723 24.7201 12.1631 26.1674 13.3166 27.2968C11.3637 28.3349 9.74003 29.8985 8.62907 31.8109C8.39115 32.2408 8.3315 32.7469 8.46295 33.2204C8.5944 33.6938 8.90645 34.0967 9.33196 34.3425C9.75746 34.5882 10.2624 34.657 10.7382 34.5343C11.214 34.4115 11.6225 34.1068 11.8759 33.6859C12.6086 32.448 13.6511 31.4223 14.9007 30.7098C16.1504 29.9973 17.564 29.6226 19.0025 29.6226C20.441 29.6226 21.8547 29.9973 23.1043 30.7098C24.3539 31.4223 25.3964 32.448 26.1291 33.6859C26.2497 33.9038 26.4125 34.0956 26.6081 34.2499C26.8036 34.4042 27.028 34.518 27.268 34.5846C27.508 34.6513 27.7589 34.6694 28.0061 34.638C28.2532 34.6066 28.4915 34.5263 28.7073 34.4017C28.923 34.2771 29.1117 34.1108 29.2624 33.9125C29.4132 33.7141 29.5229 33.4878 29.5851 33.2466C29.6474 33.0054 29.6609 32.7542 29.625 32.5077C29.5891 32.2612 29.5044 32.0243 29.3759 31.8109C28.2641 29.898 26.6394 28.3344 24.6853 27.2968ZM14.6259 21.4999C14.6259 20.6346 14.8825 19.7888 15.3633 19.0693C15.844 18.3498 16.5273 17.7891 17.3267 17.458C18.1261 17.1268 19.0058 17.0402 19.8545 17.209C20.7031 17.3778 21.4827 17.7945 22.0945 18.4063C22.7064 19.0182 23.1231 19.7977 23.2919 20.6464C23.4607 21.4951 23.3741 22.3747 23.0429 23.1742C22.7118 23.9736 22.151 24.6569 21.4316 25.1376C20.7121 25.6183 19.8662 25.8749 19.0009 25.8749C17.8406 25.8749 16.7278 25.414 15.9074 24.5935C15.0869 23.773 14.6259 22.6602 14.6259 21.4999ZM37.6275 22.9984C37.4306 23.1464 37.2064 23.2542 36.9678 23.3156C36.7291 23.377 36.4808 23.3907 36.2368 23.356C35.9929 23.3213 35.7582 23.2389 35.5461 23.1135C35.3341 22.988 35.1488 22.822 35.0009 22.6249C33.6994 20.8921 31.8994 19.564 30.4181 19.2437C30.0243 19.1585 29.6683 18.9487 29.4031 18.6453C29.1378 18.342 28.9773 17.9612 28.9454 17.5595C28.9135 17.1578 29.0118 16.7565 29.2259 16.4151C29.4399 16.0737 29.7583 15.8103 30.1338 15.664C30.6012 15.4815 31.0179 15.1891 31.3485 14.8116C31.6791 14.434 31.9139 13.9824 32.033 13.4949C32.1522 13.0074 32.1522 12.4984 32.033 12.0109C31.9139 11.5234 31.6791 11.0718 31.3485 10.6943C31.0179 10.3167 30.6012 10.0243 30.1338 9.84184C29.6663 9.65936 29.1617 9.59215 28.6628 9.64588C28.1638 9.69962 27.6852 9.87273 27.2673 10.1506C26.8493 10.4284 26.5045 10.8028 26.2619 11.2421C26.1468 11.4647 25.9883 11.662 25.7957 11.8223C25.6031 11.9826 25.3803 12.1027 25.1405 12.1755C24.9007 12.2482 24.6488 12.2722 24.3996 12.2459C24.1504 12.2196 23.909 12.1436 23.6896 12.0225C23.4703 11.9013 23.2774 11.7374 23.1225 11.5404C22.9676 11.3435 22.8537 11.1175 22.7876 10.8758C22.7215 10.634 22.7045 10.3815 22.7377 10.1331C22.7708 9.88475 22.8535 9.64553 22.9806 9.42961C23.4446 8.60922 24.0723 7.89298 24.8247 7.3254C25.5772 6.75781 26.4383 6.351 27.3545 6.13023C28.2708 5.90946 29.2227 5.87945 30.1511 6.04206C31.0795 6.20467 31.9645 6.55643 32.7512 7.07549C33.5379 7.59455 34.2094 8.26982 34.7241 9.05936C35.2389 9.8489 35.5858 10.7358 35.7433 11.6651C35.9008 12.5943 35.8655 13.546 35.6397 14.4611C35.4139 15.3761 35.0024 16.235 34.4306 16.9843C35.8064 17.9007 37.0141 19.0472 38.0009 20.3734C38.2995 20.771 38.4279 21.2709 38.3578 21.7632C38.2878 22.2555 38.0251 22.6998 37.6275 22.9984ZM7.58376 19.2484C6.10251 19.5687 4.30251 20.8968 3.00095 22.6312C2.70154 23.0288 2.25645 23.2912 1.76358 23.3606C1.27071 23.4301 0.770441 23.3009 0.372823 23.0015C-0.024794 22.7021 -0.287188 22.257 -0.356635 21.7641C-0.426082 21.2712 -0.296893 20.771 0.00251105 20.3734C0.989758 19.0476 2.19742 17.9012 3.57282 16.9843C3.00111 16.235 2.58956 15.3761 2.36376 14.4611C2.13795 13.546 2.1027 12.5943 2.2602 11.6651C2.41771 10.7358 2.76459 9.8489 3.27931 9.05936C3.79404 8.26982 4.4656 7.59455 5.2523 7.07549C6.03899 6.55643 6.92401 6.20467 7.85238 6.04206C8.78074 5.87945 9.73263 5.90946 10.6489 6.13023C11.5652 6.351 12.4263 6.75781 13.1787 7.3254C13.9312 7.89298 14.5589 8.60922 15.0228 9.42961C15.15 9.64553 15.2326 9.88475 15.2658 10.1331C15.2989 10.3815 15.282 10.634 15.2159 10.8758C15.1498 11.1175 15.0359 11.3435 14.881 11.5404C14.726 11.7374 14.5332 11.9013 14.3139 12.0225C14.0945 12.1436 13.8531 12.2196 13.6039 12.2459C13.3547 12.2722 13.1027 12.2482 12.8629 12.1755C12.6231 12.1027 12.4003 11.9826 12.2077 11.8223C12.0151 11.662 11.8566 11.4647 11.7416 11.2421C11.499 10.8028 11.1541 10.4284 10.7362 10.1506C10.3183 9.87273 9.83964 9.69962 9.34069 9.64588C8.84174 9.59215 8.33718 9.65936 7.8697 9.84184C7.40222 10.0243 6.98556 10.3167 6.65497 10.6943C6.32437 11.0718 6.08957 11.5234 5.97041 12.0109C5.85126 12.4984 5.85126 13.0074 5.97041 13.4949C6.08957 13.9824 6.32437 14.434 6.65497 14.8116C6.98556 15.1891 7.40222 15.4815 7.8697 15.664C8.24518 15.8103 8.56353 16.0737 8.77758 16.4151C8.99163 16.7565 9.08998 17.1578 9.05807 17.5595C9.02616 17.9612 8.86568 18.342 8.60041 18.6453C8.33513 18.9487 7.97919 19.1585 7.58532 19.2437L7.58376 19.2484Z" fill="#0075FF"/>
</g>
<defs>
<clipPath id="clip0_2550_441">
<rect width="40" height="40" fill="white"/>
</clipPath>
</defs>
</svg>
