<svg width="40" height="40" viewBox="0 0 40 40" fill="none" xmlns="http://www.w3.org/2000/svg">
<path d="M20 3.125C16.6624 3.125 13.3998 4.1147 10.6248 5.96895C7.84968 7.8232 5.68677 10.4587 4.40954 13.5422C3.13231 16.6257 2.79813 20.0187 3.44926 23.2921C4.10038 26.5656 5.70757 29.5724 8.06758 31.9324C10.4276 34.2924 13.4344 35.8996 16.7079 36.5508C19.9813 37.2019 23.3743 36.8677 26.4578 35.5905C29.5413 34.3132 32.1768 32.1503 34.0311 29.3752C35.8853 26.6002 36.875 23.3376 36.875 20C36.87 15.526 35.0906 11.2367 31.927 8.07305C28.7634 4.90945 24.474 3.12996 20 3.125ZM20 33.125C17.4041 33.125 14.8665 32.3552 12.7081 30.913C10.5498 29.4708 8.86749 27.421 7.87409 25.0227C6.88069 22.6244 6.62077 19.9854 7.1272 17.4394C7.63363 14.8934 8.88367 12.5548 10.7192 10.7192C12.5548 8.88366 14.8934 7.63362 17.4394 7.12719C19.9854 6.62076 22.6244 6.88068 25.0227 7.87408C27.421 8.86748 29.4709 10.5497 30.913 12.7081C32.3552 14.8665 33.125 17.4041 33.125 20C33.1213 23.4798 31.7373 26.8161 29.2767 29.2767C26.8161 31.7373 23.4798 33.1213 20 33.125ZM16.875 12.5C16.875 11.8819 17.0583 11.2777 17.4017 10.7638C17.745 10.2499 18.2331 9.8494 18.8041 9.61288C19.3751 9.37635 20.0035 9.31447 20.6097 9.43505C21.2159 9.55562 21.7727 9.85325 22.2097 10.2903C22.6468 10.7273 22.9444 11.2842 23.065 11.8903C23.1855 12.4965 23.1237 13.1249 22.8871 13.6959C22.6506 14.2669 22.2501 14.755 21.7362 15.0983C21.2223 15.4417 20.6181 15.625 20 15.625C19.1712 15.625 18.3763 15.2958 17.7903 14.7097C17.2042 14.1237 16.875 13.3288 16.875 12.5ZM28.75 18.75C28.75 19.2473 28.5525 19.7242 28.2008 20.0758C27.8492 20.4275 27.3723 20.625 26.875 20.625H21.875V20.7047L25.9563 27.1187C26.2229 27.5382 26.3122 28.0463 26.2044 28.5315C26.0965 29.0167 25.8005 29.4392 25.3813 29.7062C25.0812 29.8992 24.7317 30.0012 24.375 30C24.0594 30.0001 23.7488 29.9206 23.4721 29.7687C23.1955 29.6168 22.9616 29.3976 22.7922 29.1313L20 24.7422L17.2063 29.1313C16.9328 29.5357 16.5123 29.8175 16.0343 29.9167C15.5562 30.016 15.0583 29.9249 14.6464 29.6628C14.2345 29.4006 13.9411 28.9882 13.8286 28.5131C13.716 28.038 13.7932 27.5378 14.0438 27.1187L18.125 20.7047V20.625H13.125C12.6277 20.625 12.1508 20.4275 11.7992 20.0758C11.4476 19.7242 11.25 19.2473 11.25 18.75C11.25 18.2527 11.4476 17.7758 11.7992 17.4242C12.1508 17.0725 12.6277 16.875 13.125 16.875H26.875C27.3723 16.875 27.8492 17.0725 28.2008 17.4242C28.5525 17.7758 28.75 18.2527 28.75 18.75Z" fill="#0075FF"/>
</svg>
