<svg width="40" height="40" viewBox="0 0 40 40" fill="none" xmlns="http://www.w3.org/2000/svg">
<path d="M33.75 5.625H21.875V3.75C21.875 3.25272 21.6775 2.77581 21.3258 2.42417C20.9742 2.07254 20.4973 1.875 20 1.875C19.5027 1.875 19.0258 2.07254 18.6742 2.42417C18.3225 2.77581 18.125 3.25272 18.125 3.75V5.625H6.25C5.4212 5.625 4.62634 5.95424 4.04029 6.54029C3.45424 7.12634 3.125 7.9212 3.125 8.75V27.5C3.125 28.3288 3.45424 29.1237 4.04029 29.7097C4.62634 30.2958 5.4212 30.625 6.25 30.625H11.0938L8.53125 33.8281C8.22045 34.2164 8.07663 34.7123 8.13142 35.2066C8.18622 35.7009 8.43514 36.1533 8.82344 36.4641C9.21173 36.7749 9.70759 36.9187 10.2019 36.8639C10.6963 36.8091 11.1486 36.5602 11.4594 36.1719L15.8969 30.625H24.0938L28.5312 36.1719C28.6851 36.3641 28.8754 36.5242 29.0912 36.6429C29.3069 36.7617 29.5439 36.8368 29.7887 36.8639C30.0335 36.891 30.2812 36.8697 30.5177 36.8011C30.7542 36.7325 30.9749 36.618 31.1672 36.4641C31.3595 36.3102 31.5195 36.1199 31.6383 35.9042C31.757 35.6884 31.8321 35.4514 31.8592 35.2066C31.8863 34.9618 31.865 34.7141 31.7964 34.4776C31.7278 34.2411 31.6133 34.0204 31.4594 33.8281L28.9062 30.625H33.75C34.5788 30.625 35.3737 30.2958 35.9597 29.7097C36.5458 29.1237 36.875 28.3288 36.875 27.5V8.75C36.875 7.9212 36.5458 7.12634 35.9597 6.54029C35.3737 5.95424 34.5788 5.625 33.75 5.625ZM33.125 26.875H6.875V9.375H33.125V26.875ZM16.25 18.75V22.5C16.25 22.9973 16.0525 23.4742 15.7008 23.8258C15.3492 24.1775 14.8723 24.375 14.375 24.375C13.8777 24.375 13.4008 24.1775 13.0492 23.8258C12.6975 23.4742 12.5 22.9973 12.5 22.5V18.75C12.5 18.2527 12.6975 17.7758 13.0492 17.4242C13.4008 17.0725 13.8777 16.875 14.375 16.875C14.8723 16.875 15.3492 17.0725 15.7008 17.4242C16.0525 17.7758 16.25 18.2527 16.25 18.75ZM20 14.375C20.4973 14.375 20.9742 14.5725 21.3258 14.9242C21.6775 15.2758 21.875 15.7527 21.875 16.25V22.5C21.875 22.9973 21.6775 23.4742 21.3258 23.8258C20.9742 24.1775 20.4973 24.375 20 24.375C19.5027 24.375 19.0258 24.1775 18.6742 23.8258C18.3225 23.4742 18.125 22.9973 18.125 22.5V16.25C18.125 15.7527 18.3225 15.2758 18.6742 14.9242C19.0258 14.5725 19.5027 14.375 20 14.375ZM23.75 22.5V13.75C23.75 13.2527 23.9475 12.7758 24.2992 12.4242C24.6508 12.0725 25.1277 11.875 25.625 11.875C26.1223 11.875 26.5992 12.0725 26.9508 12.4242C27.3025 12.7758 27.5 13.2527 27.5 13.75V22.5C27.5 22.9973 27.3025 23.4742 26.9508 23.8258C26.5992 24.1775 26.1223 24.375 25.625 24.375C25.1277 24.375 24.6508 24.1775 24.2992 23.8258C23.9475 23.4742 23.75 22.9973 23.75 22.5Z" fill="#0075FF"/>
</svg>
