<svg width="40" height="40" viewBox="0 0 40 40" fill="none" xmlns="http://www.w3.org/2000/svg">
<path d="M14.375 14.375C14.375 13.8777 14.5725 13.4008 14.9242 13.0492C15.2758 12.6975 15.7527 12.5 16.25 12.5H25.625C26.1223 12.5 26.5992 12.6975 26.9508 13.0492C27.3025 13.4008 27.5 13.8777 27.5 14.375C27.5 14.8723 27.3025 15.3492 26.9508 15.7008C26.5992 16.0525 26.1223 16.25 25.625 16.25H16.25C15.7527 16.25 15.2758 16.0525 14.9242 15.7008C14.5725 15.3492 14.375 14.8723 14.375 14.375ZM16.25 22.5H25.625C26.1223 22.5 26.5992 22.3025 26.9508 21.9508C27.3025 21.5992 27.5 21.1223 27.5 20.625C27.5 20.1277 27.3025 19.6508 26.9508 19.2992C26.5992 18.9475 26.1223 18.75 25.625 18.75H16.25C15.7527 18.75 15.2758 18.9475 14.9242 19.2992C14.5725 19.6508 14.375 20.1277 14.375 20.625C14.375 21.1223 14.5725 21.5992 14.9242 21.9508C15.2758 22.3025 15.7527 22.5 16.25 22.5ZM36.875 30C36.875 31.4918 36.2824 32.9226 35.2275 33.9775C34.1726 35.0324 32.7418 35.625 31.25 35.625H13.75C12.2582 35.625 10.8274 35.0324 9.77252 33.9775C8.71763 32.9226 8.125 31.4918 8.125 30V10C8.125 9.50272 7.92746 9.02581 7.57583 8.67417C7.22419 8.32254 6.74728 8.125 6.25 8.125C5.75272 8.125 5.27581 8.32254 4.92417 8.67417C4.57254 9.02581 4.375 9.50272 4.375 10C4.375 10.5828 4.89844 11.0172 4.90312 11.0219L4.875 11C5.08135 11.144 5.2566 11.328 5.39032 11.5412C5.52404 11.7543 5.61349 11.9922 5.65334 12.2407C5.6932 12.4891 5.68264 12.743 5.62229 12.9873C5.56195 13.2316 5.45306 13.4612 5.30211 13.6625C5.15115 13.8638 4.96122 14.0327 4.74364 14.159C4.52605 14.2854 4.28525 14.3667 4.03559 14.398C3.78593 14.4294 3.53252 14.4101 3.29045 14.3415C3.04838 14.2729 2.8226 14.1562 2.62656 13.9984C2.42031 13.8469 0.625 12.4297 0.625 10C0.625 8.50816 1.21763 7.07742 2.27252 6.02252C3.32742 4.96763 4.75816 4.375 6.25 4.375H27.5C28.9918 4.375 30.4226 4.96763 31.4775 6.02252C32.5324 7.07742 33.125 8.50816 33.125 10V25.625H33.75C34.1557 25.625 34.5504 25.7566 34.875 26C35.0797 26.1531 36.875 27.5703 36.875 30ZM14.4719 26.9062C14.5964 26.5332 14.8351 26.2087 15.1542 25.9788C15.4734 25.7488 15.8567 25.6251 16.25 25.625H29.375V10C29.375 9.50272 29.1775 9.02581 28.8258 8.67417C28.4742 8.32254 27.9973 8.125 27.5 8.125H11.5531C11.7665 8.7271 11.8753 9.36123 11.875 10V30C11.875 30.4973 12.0725 30.9742 12.4242 31.3258C12.7758 31.6775 13.2527 31.875 13.75 31.875C14.2473 31.875 14.7242 31.6775 15.0758 31.3258C15.4275 30.9742 15.625 30.4973 15.625 30C15.625 29.4406 15.1297 29.0031 15.125 29C14.8101 28.7637 14.5776 28.4344 14.4604 28.0586C14.3431 27.6828 14.3472 27.2796 14.4719 26.9062ZM33.125 30C33.1195 29.7778 33.0524 29.5614 32.9312 29.375H19.3375C19.3648 29.5822 19.3784 29.791 19.3781 30C19.3786 30.6388 19.2697 31.2729 19.0562 31.875H31.25C31.7473 31.875 32.2242 31.6775 32.5758 31.3258C32.9275 30.9742 33.125 30.4973 33.125 30Z" fill="#0075FF"/>
</svg>
