<?xml version="1.0" encoding="UTF-8"?>
<svg version="1.1" xmlns="http://www.w3.org/2000/svg" width="512" height="512">
<path d="M0 0 C1.56041016 1.13501953 1.56041016 1.13501953 3.15234375 2.29296875 C45.74458648 33.86350674 71.77377506 79.86079084 80 132 C85.70149313 172.48546043 77.30791997 214.22630079 58 250 C57.67386719 250.61214355 57.34773438 251.22428711 57.01171875 251.85498047 C52.37840201 260.49630079 47.07512923 268.32171166 41 276 C42.3344173 278.9665718 43.79118189 281.03543889 46.09884644 283.31916809 C47.05351303 284.27145546 47.05351303 284.27145546 48.02746582 285.24298096 C48.72464722 285.92825867 49.42182861 286.61353638 50.14013672 287.31958008 C50.87527496 288.0501915 51.61041321 288.78080292 52.36782837 289.53355408 C53.96440904 291.11917819 55.56325662 292.70252223 57.1640892 294.28385353 C59.69919402 296.78880576 62.22757288 299.30036811 64.75418091 301.81388855 C71.93915039 308.95910113 79.1366659 316.09162815 86.33740234 323.22094727 C90.74210842 327.58288558 95.13943972 331.95215128 99.53253555 336.32578087 C101.20653523 337.98922638 102.88344259 339.64975115 104.56332016 341.30726051 C106.91610943 343.62877737 109.25947902 345.95943668 111.60107422 348.29223633 C112.29420715 348.97144135 112.98734009 349.65064636 113.70147705 350.35043335 C119.75488582 356.41547288 123.66934905 362.0402357 124.25 370.75 C124.15084549 377.40574635 121.71844869 383.28155131 117 388 C110.84268105 392.25833273 105.45493347 393.69633994 98 393 C84.20229622 389.66184586 73.18634886 374.31801134 63.4921875 364.58984375 C61.9148621 363.0106498 60.3373132 361.43167907 58.759552 359.85292053 C54.63762577 355.72720352 50.51871333 351.59849073 46.40045166 347.46911621 C42.18547393 343.24384984 37.96761083 339.02146588 33.75 334.79882812 C25.49719633 326.5353479 17.24757822 318.2686954 9 310 C5.88261924 311.50360852 3.08341931 313.25757272 0.23168945 315.22314453 C-43.18617985 345.08185018 -95.56647903 356.52652521 -147.5546875 347.32421875 C-164.51442083 343.99622281 -180.52785384 338.66805578 -196 331 C-196.70672852 330.65743164 -197.41345703 330.31486328 -198.14160156 329.96191406 C-225.06283085 316.82572533 -248.18565304 296.99905103 -266 273 C-266.60158936 272.18958252 -266.60158936 272.18958252 -267.21533203 271.36279297 C-297.60344205 229.95692087 -309.3694888 178.49056232 -301.97265625 127.85546875 C-295.97330952 90.25253126 -279.84191462 56.20012286 -254.01953125 28.20703125 C-252.26095093 26.28517848 -250.59180225 24.32352511 -248.9375 22.3125 C-245.62833409 18.44882521 -241.91148903 15.24112377 -238 12 C-237.50951172 11.58121582 -237.01902344 11.16243164 -236.51367188 10.73095703 C-170.97699462 -45.12506182 -70.23705289 -51.45388654 0 0 Z M-224.02392578 59.76513672 C-229.30723677 65.74035648 -233.73275948 72.2776348 -238 79 C-238.37946777 79.58281738 -238.75893555 80.16563477 -239.14990234 80.76611328 C-248.69427672 95.56355949 -254.50496495 112.8191435 -258 130 C-258.33644531 131.55847656 -258.33644531 131.55847656 -258.6796875 133.1484375 C-262.02281351 151.69591744 -260.98189345 171.64828449 -257 190 C-256.74476563 191.24007812 -256.48953125 192.48015625 -256.2265625 193.7578125 C-247.40686067 231.2213166 -222.31161875 263.7974273 -190.125 284.25 C-155.78552675 305.31626666 -115.21146904 311.96063366 -75.9375 302.75 C-67.26435226 300.57747774 -59.1330357 297.71770687 -51 294 C-50.36819824 293.71817871 -49.73639648 293.43635742 -49.08544922 293.14599609 C-32.35250427 285.61346731 -17.92849787 274.95855416 -5 262 C-4.06800781 261.07960938 -3.13601563 260.15921875 -2.17578125 259.2109375 C17.85752698 238.46317463 31.40376591 210.42594007 36 182 C36.18304688 180.87980469 36.36609375 179.75960937 36.5546875 178.60546875 C38.63584113 161.14620987 38.56179191 140.99319561 34 124 C33.71793701 122.86908936 33.71793701 122.86908936 33.43017578 121.71533203 C27.52901229 98.35010474 16.63688674 78.25202125 1 60 C-0.02867187 58.76830078 -0.02867187 58.76830078 -1.078125 57.51171875 C-21.12014587 34.24070563 -49.20046789 18.68682223 -79 12 C-80.02963867 11.75660889 -80.02963867 11.75660889 -81.08007812 11.50830078 C-134.31585097 -0.71574279 -187.79684931 20.83695583 -224.02392578 59.76513672 Z " fill="#000000" transform="translate(346,77)"/>
</svg>
