<svg width="40" height="40" viewBox="0 0 40 40" fill="none" xmlns="http://www.w3.org/2000/svg">
<path d="M13.125 20C13.125 19.5027 13.3225 19.0258 13.6742 18.6742C14.0258 18.3225 14.5027 18.125 15 18.125H18.125V15C18.125 14.5027 18.3225 14.0258 18.6742 13.6742C19.0258 13.3225 19.5027 13.125 20 13.125C20.4973 13.125 20.9742 13.3225 21.3258 13.6742C21.6775 14.0258 21.875 14.5027 21.875 15V18.125H25C25.4973 18.125 25.9742 18.3225 26.3258 18.6742C26.6775 19.0258 26.875 19.5027 26.875 20C26.875 20.4973 26.6775 20.9742 26.3258 21.3258C25.9742 21.6775 25.4973 21.875 25 21.875H21.875V25C21.875 25.4973 21.6775 25.9742 21.3258 26.3258C20.9742 26.6775 20.4973 26.875 20 26.875C19.5027 26.875 19.0258 26.6775 18.6742 26.3258C18.3225 25.9742 18.125 25.4973 18.125 25V21.875H15C14.5027 21.875 14.0258 21.6775 13.6742 21.3258C13.3225 20.9742 13.125 20.4973 13.125 20ZM35.625 8.75V17.5C35.625 25.9828 31.5125 31.1281 28.0625 33.9516C24.3578 36.9812 20.65 38.0141 20.4938 38.0594C20.1704 38.1469 19.8296 38.1469 19.5062 38.0594C19.35 38.0156 15.6422 36.9812 11.9375 33.9516C8.4875 31.1281 4.375 25.9828 4.375 17.5V8.75C4.375 7.9212 4.70424 7.12634 5.29029 6.54029C5.87634 5.95424 6.6712 5.625 7.5 5.625H32.5C33.3288 5.625 34.1237 5.95424 34.7097 6.54029C35.2958 7.12634 35.625 7.9212 35.625 8.75ZM31.875 9.375H8.125V17.5C8.125 23.0797 10.1703 27.6078 14.2047 30.9609C15.9337 32.3882 17.8936 33.5101 20 34.2781C22.1062 33.5097 24.066 32.3879 25.7953 30.9609C29.8297 27.6078 31.875 23.0797 31.875 17.5V9.375Z" fill="#0075FF"/>
</svg>
