<svg width="40" height="40" viewBox="0 0 40 40" fill="none" xmlns="http://www.w3.org/2000/svg">
<path d="M33.75 5.625H6.25C5.4212 5.625 4.62634 5.95424 4.04029 6.54029C3.45424 7.12634 3.125 7.9212 3.125 8.75V31.25C3.125 32.0788 3.45424 32.8737 4.04029 33.4597C4.62634 34.0458 5.4212 34.375 6.25 34.375H33.75C34.5788 34.375 35.3737 34.0458 35.9597 33.4597C36.5458 32.8737 36.875 32.0788 36.875 31.25V8.75C36.875 7.9212 36.5458 7.12634 35.9597 6.54029C35.3737 5.95424 34.5788 5.625 33.75 5.625ZM33.125 30.625H6.875V9.375H33.125V30.625ZM11.875 13.75C11.875 13.2527 12.0725 12.7758 12.4242 12.4242C12.7758 12.0725 13.2527 11.875 13.75 11.875C14.2473 11.875 14.7242 12.0725 15.0758 12.4242C15.4275 12.7758 15.625 13.2527 15.625 13.75C15.625 14.9103 16.0859 16.0231 16.9064 16.8436C17.7269 17.6641 18.8397 18.125 20 18.125C21.1603 18.125 22.2731 17.6641 23.0936 16.8436C23.9141 16.0231 24.375 14.9103 24.375 13.75C24.375 13.2527 24.5725 12.7758 24.9242 12.4242C25.2758 12.0725 25.7527 11.875 26.25 11.875C26.7473 11.875 27.2242 12.0725 27.5758 12.4242C27.9275 12.7758 28.125 13.2527 28.125 13.75C28.125 15.9049 27.269 17.9715 25.7452 19.4952C24.2215 21.019 22.1549 21.875 20 21.875C17.8451 21.875 15.7785 21.019 14.2548 19.4952C12.731 17.9715 11.875 15.9049 11.875 13.75Z" fill="#0075FF"/>
</svg>
