<svg width="40" height="40" viewBox="0 0 40 40" fill="none" xmlns="http://www.w3.org/2000/svg">
<path d="M12.4997 22.5C11.2636 22.5 10.0552 22.8666 9.02742 23.5533C7.99962 24.2401 7.19854 25.2162 6.72549 26.3582C6.25244 27.5003 6.12867 28.7569 6.36983 29.9693C6.61099 31.1817 7.20624 32.2953 8.08032 33.1694C8.9544 34.0435 10.068 34.6388 11.2804 34.8799C12.4928 35.1211 13.7495 34.9973 14.8915 34.5242C16.0335 34.0512 17.0097 33.2501 17.6964 32.2223C18.3832 31.1945 18.7497 29.9861 18.7497 28.75C18.7497 27.0924 18.0913 25.5027 16.9192 24.3306C15.7471 23.1585 14.1573 22.5 12.4997 22.5ZM12.4997 31.25C12.0053 31.25 11.5219 31.1034 11.1108 30.8287C10.6997 30.554 10.3793 30.1635 10.19 29.7067C10.0008 29.2499 9.95131 28.7472 10.0478 28.2623C10.1442 27.7773 10.3823 27.3319 10.732 26.9822C11.0816 26.6326 11.5271 26.3945 12.012 26.298C12.497 26.2016 12.9996 26.2511 13.4564 26.4403C13.9133 26.6295 14.3037 26.95 14.5784 27.3611C14.8531 27.7722 14.9997 28.2555 14.9997 28.75C14.9997 29.413 14.7363 30.0489 14.2675 30.5178C13.7987 30.9866 13.1628 31.25 12.4997 31.25ZM7.49974 20C7.12868 20.0003 6.76588 19.8905 6.45727 19.6845C6.14866 19.4785 5.90811 19.1855 5.76607 18.8427C5.62403 18.4999 5.5869 18.1227 5.65937 17.7588C5.73184 17.3949 5.91065 17.0607 6.17317 16.7984L7.96849 15L6.17317 13.2016C5.82093 12.8493 5.62305 12.3716 5.62305 11.8734C5.62305 11.3753 5.82093 10.8976 6.17317 10.5453C6.52541 10.1931 7.00316 9.99519 7.5013 9.99518C7.99944 9.99518 8.47718 10.1931 8.82942 10.5453L10.6247 12.3438L12.4232 10.5484C12.7754 10.1962 13.2532 9.99831 13.7513 9.99831C14.2494 9.99831 14.7272 10.1962 15.0794 10.5484C15.4317 10.9007 15.6296 11.3784 15.6296 11.8766C15.6296 12.3747 15.4317 12.8524 15.0794 13.2047L13.281 15L15.081 16.7984C15.4332 17.1507 15.6311 17.6284 15.6311 18.1266C15.6311 18.6247 15.4332 19.1024 15.081 19.4547C14.7287 19.8069 14.251 20.0048 13.7529 20.0048C13.2547 20.0048 12.777 19.8069 12.4247 19.4547L10.6247 17.6562L8.8263 19.4516C8.65204 19.6256 8.4452 19.7637 8.21758 19.8578C7.98996 19.9519 7.74604 20.0002 7.49974 20ZM36.3263 31.7984C36.6785 32.1507 36.8764 32.6284 36.8764 33.1266C36.8764 33.6247 36.6785 34.1024 36.3263 34.4547C35.9741 34.8069 35.4963 35.0048 34.9982 35.0048C34.5 35.0048 34.0223 34.8069 33.6701 34.4547L31.8747 32.6562L30.0763 34.4563C29.7241 34.8085 29.2463 35.0064 28.7482 35.0064C28.25 35.0064 27.7723 34.8085 27.4201 34.4563C27.0678 34.104 26.8699 33.6263 26.8699 33.1281C26.8699 32.63 27.0678 32.1522 27.4201 31.8L29.2185 30L27.4185 28.2016C27.0662 27.8493 26.8684 27.3716 26.8684 26.8734C26.8684 26.3753 27.0662 25.8976 27.4185 25.5453C27.7707 25.1931 28.2485 24.9952 28.7466 24.9952C29.2448 24.9952 29.7225 25.1931 30.0747 25.5453L31.8747 27.3438L33.6732 25.5437C34.0254 25.1915 34.5032 24.9936 35.0013 24.9936C35.4994 24.9936 35.9772 25.1915 36.3294 25.5437C36.6817 25.896 36.8796 26.3737 36.8796 26.8719C36.8796 27.37 36.6817 27.8478 36.3294 28.2L34.531 30L36.3263 31.7984ZM29.545 17.3266C28.731 20.9203 25.8997 24.1281 22.4997 25.3297C22.2676 25.4118 22.0215 25.4473 21.7756 25.4343C21.5297 25.4213 21.2887 25.3599 21.0665 25.2538C20.6178 25.0395 20.2725 24.6556 20.1068 24.1867C19.941 23.7178 19.9683 23.2023 20.1827 22.7535C20.397 22.3047 20.7808 21.9595 21.2497 21.7937C23.4482 21.0125 25.3544 18.8391 25.8857 16.4969C26.256 14.8625 25.9482 13.2406 24.9982 11.725V13.1313C24.9982 13.6285 24.8006 14.1054 24.449 14.4571C24.0974 14.8087 23.6205 15.0063 23.1232 15.0063C22.6259 15.0063 22.149 14.8087 21.7973 14.4571C21.4457 14.1054 21.2482 13.6285 21.2482 13.1313V6.875C21.2482 6.37772 21.4457 5.90081 21.7973 5.54917C22.149 5.19754 22.6259 5 23.1232 5H29.3732C29.8705 5 30.3474 5.19754 30.699 5.54917C31.0506 5.90081 31.2482 6.37772 31.2482 6.875C31.2482 7.37228 31.0506 7.84919 30.699 8.20083C30.3474 8.55246 29.8705 8.75 29.3732 8.75H27.4997C29.4951 11.3453 30.2216 14.3375 29.545 17.3266Z" fill="#0075FF"/>
</svg>
