<svg width="40" height="40" viewBox="0 0 40 40" fill="none" xmlns="http://www.w3.org/2000/svg">
<path d="M35.625 7.5V23.75C35.625 24.5788 35.2958 25.3737 34.7097 25.9597C34.1237 26.5458 33.3288 26.875 32.5 26.875H17.6437C17.9618 27.2397 18.1266 27.7133 18.1035 28.1967C18.0804 28.6801 17.8714 29.1359 17.52 29.4687C17.1686 29.8015 16.7022 29.9855 16.2183 29.9823C15.7343 29.9791 15.2704 29.789 14.9234 29.4516L11.7984 26.3266C11.6236 26.1524 11.4849 25.9454 11.3903 25.7175C11.2957 25.4896 11.247 25.2452 11.247 24.9984C11.247 24.7517 11.2957 24.5073 11.3903 24.2794C11.4849 24.0515 11.6236 23.8445 11.7984 23.6703L14.9234 20.5453C15.2686 20.1979 15.736 19.9993 16.2257 19.992C16.7153 19.9847 17.1884 20.1693 17.5438 20.5063C17.8991 20.8433 18.1085 21.3059 18.1272 21.7953C18.1459 22.2846 17.9724 22.7619 17.6437 23.125H31.875V8.125H15.625C15.625 8.62228 15.4275 9.09919 15.0758 9.45083C14.7242 9.80246 14.2473 10 13.75 10C13.2527 10 12.7758 9.80246 12.4242 9.45083C12.0725 9.09919 11.875 8.62228 11.875 8.125V7.5C11.875 6.6712 12.2042 5.87634 12.7903 5.29029C13.3763 4.70424 14.1712 4.375 15 4.375H32.5C33.3288 4.375 34.1237 4.70424 34.7097 5.29029C35.2958 5.87634 35.625 6.6712 35.625 7.5ZM26.25 30C25.7527 30 25.2758 30.1975 24.9242 30.5492C24.5725 30.9008 24.375 31.3777 24.375 31.875H8.125V16.875H22.3563C22.0382 17.2397 21.8734 17.7133 21.8965 18.1967C21.9196 18.6801 22.1286 19.1359 22.48 19.4687C22.8314 19.8015 23.2978 19.9855 23.7817 19.9823C24.2657 19.9791 24.7296 19.789 25.0766 19.4516L28.2016 16.3266C28.3764 16.1524 28.5151 15.9454 28.6097 15.7175C28.7043 15.4896 28.753 15.2452 28.753 14.9984C28.753 14.7517 28.7043 14.5073 28.6097 14.2794C28.5151 14.0515 28.3764 13.8445 28.2016 13.6703L25.0766 10.5453C24.7314 10.1979 24.264 9.99931 23.7743 9.99202C23.2847 9.98473 22.8116 10.1693 22.4562 10.5063C22.1009 10.8433 21.8915 11.3059 21.8728 11.7953C21.8541 12.2846 22.0276 12.7619 22.3563 13.125H7.5C6.6712 13.125 5.87634 13.4542 5.29029 14.0403C4.70424 14.6263 4.375 15.4212 4.375 16.25V32.5C4.375 33.3288 4.70424 34.1237 5.29029 34.7097C5.87634 35.2958 6.6712 35.625 7.5 35.625H25C25.8288 35.625 26.6237 35.2958 27.2097 34.7097C27.7958 34.1237 28.125 33.3288 28.125 32.5V31.875C28.125 31.3777 27.9275 30.9008 27.5758 30.5492C27.2242 30.1975 26.7473 30 26.25 30Z" fill="#0075FF"/>
</svg>
