<svg width="80" height="80" viewBox="0 0 80 80" fill="none" xmlns="http://www.w3.org/2000/svg">
<path d="M71.6439 28.25C74.3322 35.4708 74.4689 43.3941 72.0312 50.7033C69.5935 58.0126 64.7283 64.2677 58.2438 68.4293C51.7594 72.5909 44.0462 74.4085 36.3858 73.58C28.7255 72.7515 21.5793 69.3268 16.1345 63.875C10.0184 57.7791 6.47157 49.5707 6.22386 40.939C5.97616 32.3073 9.04644 23.909 14.8029 17.4723C20.5593 11.0357 28.564 7.05029 37.1697 6.33638C45.7754 5.62246 54.3274 8.23429 61.0658 13.6344L67.347 7.35002C67.6958 7.0012 68.11 6.7245 68.5657 6.53572C69.0215 6.34693 69.51 6.24977 70.0033 6.24977C70.4966 6.24977 70.9851 6.34693 71.4408 6.53572C71.8966 6.7245 72.3107 7.0012 72.6595 7.35002C73.0083 7.69885 73.285 8.11296 73.4738 8.56872C73.6626 9.02448 73.7598 9.51296 73.7598 10.0063C73.7598 10.4996 73.6626 10.9881 73.4738 11.4438C73.285 11.8996 73.0083 12.3137 72.6595 12.6625L42.6595 42.6625C42.3107 43.0113 41.8966 43.288 41.4408 43.4768C40.9851 43.6656 40.4966 43.7628 40.0033 43.7628C39.51 43.7628 39.0215 43.6656 38.5657 43.4768C38.11 43.288 37.6958 43.0113 37.347 42.6625C36.9982 42.3137 36.7215 41.8996 36.5327 41.4438C36.3439 40.9881 36.2468 40.4996 36.2468 40.0063C36.2468 39.513 36.3439 39.0245 36.5327 38.5687C36.7215 38.113 36.9982 37.6988 37.347 37.35L44.847 29.85C42.7332 28.8401 40.3568 28.5153 38.0495 28.9209C35.7422 29.3264 33.6191 30.4422 31.9764 32.1124C30.3337 33.7827 29.2534 35.9241 28.8862 38.2378C28.5191 40.5516 28.8834 42.9222 29.9283 45.0189C30.9732 47.1157 32.6467 48.8339 34.7151 49.9338C36.7835 51.0338 39.1437 51.4606 41.4663 51.1546C43.7889 50.8487 45.9581 49.8254 47.6711 48.2274C49.3842 46.6294 50.5556 44.5364 51.022 42.2407C51.2184 41.2656 51.7942 40.4084 52.6226 39.8579C53.4509 39.3073 54.4641 39.1083 55.4392 39.3047C56.4143 39.5011 57.2714 40.0769 57.822 40.9053C58.3726 41.7336 58.5716 42.7468 58.3751 43.7219C57.5763 47.6568 55.5355 51.2313 52.553 53.9195C49.5705 56.6076 45.8038 58.2673 41.8073 58.6544C37.8109 59.0414 33.7957 58.1353 30.3528 56.0695C26.9099 54.0036 24.221 50.8871 22.682 47.1786C21.143 43.4701 20.8351 39.3655 21.8036 35.4689C22.7721 31.5723 24.9659 28.0896 28.062 25.5332C31.1582 22.9768 34.9932 21.4818 39.0027 21.2682C43.0122 21.0547 46.9843 22.1338 50.3345 24.3469L55.7189 18.9813C50.6611 15.2039 44.4114 13.3758 38.1153 13.8318C31.8191 14.2878 25.8981 16.9975 21.4374 21.4643C16.9767 25.931 14.2751 31.8556 13.8276 38.1524C13.3801 44.4492 15.2168 50.6964 19.001 55.7491C22.7852 60.8017 28.2634 64.3215 34.4318 65.6633C40.6002 67.0052 47.0456 66.0792 52.5868 63.0551C58.1279 60.0309 62.3937 55.1113 64.6024 49.1976C66.8111 43.2839 66.8147 36.7724 64.6126 30.8563C64.4373 30.3937 64.3553 29.9011 64.3712 29.4067C64.3871 28.9123 64.5007 28.426 64.7053 27.9757C64.91 27.5254 65.2017 27.12 65.5637 26.7829C65.9257 26.4458 66.3508 26.1837 66.8145 26.0116C67.2783 25.8395 67.7715 25.7608 68.2657 25.7802C68.76 25.7995 69.2455 25.9164 69.6944 26.1242C70.1433 26.3319 70.5467 26.6265 70.8812 26.9908C71.2158 27.3551 71.475 27.782 71.6439 28.2469V28.25Z" fill="#0075FF"/>
</svg>
