<svg width="40" height="40" viewBox="0 0 40 40" fill="none" xmlns="http://www.w3.org/2000/svg">
<path d="M14.1974 7.95156C14.046 7.62944 13.806 7.35708 13.5055 7.1663C13.205 6.97552 12.8565 6.87421 12.5005 6.87421C12.1446 6.87421 11.796 6.97552 11.4955 7.1663C11.1951 7.35708 10.9551 7.62944 10.8037 7.95156L0.803661 29.2016C0.603475 29.6497 0.587 30.1585 0.757773 30.6187C0.928545 31.0788 1.27295 31.4537 1.71703 31.6627C2.16111 31.8718 2.66946 31.8983 3.13293 31.7368C3.59639 31.5752 3.97801 31.2383 4.19585 30.7984L6.63179 25.625H18.3693L20.8037 30.7984C21.0154 31.2485 21.3973 31.596 21.8652 31.7645C22.3332 31.9329 22.8489 31.9086 23.299 31.6969C23.749 31.4851 24.0965 31.1033 24.265 30.6353C24.4335 30.1673 24.4092 29.6516 24.1974 29.2016L14.1974 7.95156ZM8.39741 21.875L12.5005 13.1531L16.6052 21.875H8.39741ZM31.2505 13.125C29.0865 13.125 27.3802 13.7281 26.1802 14.9187C25.9915 15.0887 25.8393 15.2953 25.7329 15.5259C25.6264 15.7565 25.5679 16.0063 25.5609 16.2602C25.5539 16.5141 25.5986 16.7668 25.6922 17.0029C25.7858 17.239 25.9264 17.4536 26.1055 17.6337C26.2845 17.8138 26.4983 17.9557 26.7339 18.0507C26.9694 18.1457 27.2218 18.1919 27.4758 18.1864C27.7297 18.1809 27.9798 18.1239 28.2111 18.0188C28.4423 17.9137 28.6497 17.7627 28.8208 17.575C29.2896 17.1062 30.1115 16.8687 31.2505 16.8687C32.9693 16.8687 34.3755 17.9906 34.3755 19.3687V20.0547C33.396 19.6027 32.3293 19.3707 31.2505 19.375C27.4599 19.375 24.3755 22.1781 24.3755 25.625C24.3755 29.0719 27.4599 31.875 31.2505 31.875C32.4476 31.878 33.6275 31.5895 34.688 31.0344C34.9106 31.3699 35.2352 31.6249 35.6139 31.7616C35.9926 31.8982 36.4053 31.9094 36.7908 31.7934C37.1763 31.6774 37.5143 31.4404 37.7547 31.1174C37.9951 30.7944 38.1251 30.4026 38.1255 30V19.375C38.1255 15.9281 35.0412 13.125 31.2505 13.125ZM31.2505 28.125C29.5318 28.125 28.1255 27.0031 28.1255 25.625C28.1255 24.2469 29.5318 23.125 31.2505 23.125C32.9693 23.125 34.3755 24.2469 34.3755 25.625C34.3755 27.0031 32.9693 28.125 31.2505 28.125Z" fill="#0075FF"/>
</svg>
