<svg width="40" height="40" viewBox="0 0 40 40" fill="none" xmlns="http://www.w3.org/2000/svg">
<path d="M28.75 5.625H11.25C8.76448 5.62789 6.3816 6.61654 4.62407 8.37407C2.86654 10.1316 1.87789 12.5145 1.875 15V30C1.875 30.8288 2.20424 31.6237 2.79029 32.2097C3.37634 32.7958 4.1712 33.125 5 33.125H35C35.8288 33.125 36.6237 32.7958 37.2097 32.2097C37.7958 31.6237 38.125 30.8288 38.125 30V15C38.1221 12.5145 37.1335 10.1316 35.3759 8.37407C33.6184 6.61654 31.2355 5.62789 28.75 5.625ZM34.375 15V15.625H30V9.51719C31.2418 9.80166 32.3505 10.4987 33.1451 11.4945C33.9397 12.4903 34.3732 13.726 34.375 15ZM20 24.375C20.4973 24.375 20.9742 24.1775 21.3258 23.8258C21.6775 23.4742 21.875 22.9973 21.875 22.5V19.375H26.25V29.375H13.75V19.375H18.125V22.5C18.125 22.9973 18.3225 23.4742 18.6742 23.8258C19.0258 24.1775 19.5027 24.375 20 24.375ZM21.875 15.625V15C21.875 14.5027 21.6775 14.0258 21.3258 13.6742C20.9742 13.3225 20.4973 13.125 20 13.125C19.5027 13.125 19.0258 13.3225 18.6742 13.6742C18.3225 14.0258 18.125 14.5027 18.125 15V15.625H13.75V9.375H26.25V15.625H21.875ZM10 9.51719V15.625H5.625V15C5.62676 13.726 6.06032 12.4903 6.85492 11.4945C7.64951 10.4987 8.7582 9.80166 10 9.51719ZM5.625 19.375H10V29.375H5.625V19.375ZM30 29.375V19.375H34.375V29.375H30Z" fill="#0075FF"/>
</svg>
