<svg width="40" height="40" viewBox="0 0 40 40" fill="none" xmlns="http://www.w3.org/2000/svg">
<path d="M36.6223 32.8125C34.48 29.0527 31.1349 26.1231 27.1254 24.4954C29.1193 22.9999 30.5921 20.9151 31.3352 18.5361C32.0784 16.1571 32.0541 13.6046 31.266 11.2402C30.4778 8.8757 28.9657 6.81917 26.9438 5.36186C24.9219 3.90456 22.4927 3.12036 20.0004 3.12036C17.508 3.12036 15.0788 3.90456 13.0569 5.36186C11.035 6.81917 9.52291 8.8757 8.73476 11.2402C7.94661 13.6046 7.92239 16.1571 8.66553 18.5361C9.40867 20.9151 10.8815 22.9999 12.8754 24.4954C8.86588 26.1231 5.52075 29.0527 3.3785 32.8125C3.24576 33.026 3.15729 33.2639 3.11834 33.5123C3.0794 33.7606 3.09078 34.0142 3.15181 34.258C3.21284 34.5019 3.32228 34.7309 3.47361 34.9316C3.62493 35.1323 3.81507 35.3005 4.03271 35.4263C4.25035 35.552 4.49105 35.6327 4.7405 35.6636C4.98995 35.6944 5.24306 35.6748 5.48478 35.6059C5.7265 35.537 5.9519 35.4202 6.14757 35.2624C6.34325 35.1047 6.5052 34.9092 6.62381 34.6875C9.45506 29.7938 14.4551 26.875 20.0004 26.875C25.5457 26.875 30.5457 29.7954 33.3769 34.6875C33.634 35.1009 34.0417 35.398 34.5139 35.5162C34.9861 35.6344 35.4857 35.5644 35.9071 35.3209C36.3286 35.0774 36.6388 34.6795 36.7723 34.2114C36.9057 33.7433 36.8519 33.2417 36.6223 32.8125ZM11.8754 15C11.8754 13.3931 12.3519 11.8222 13.2447 10.486C14.1375 9.14989 15.4064 8.10849 16.8911 7.49353C18.3757 6.87857 20.0094 6.71766 21.5855 7.03117C23.1616 7.34467 24.6093 8.1185 25.7456 9.25481C26.8819 10.3911 27.6558 11.8388 27.9693 13.4149C28.2828 14.991 28.1219 16.6247 27.5069 18.1094C26.8919 19.594 25.8505 20.863 24.5144 21.7557C23.1782 22.6485 21.6073 23.125 20.0004 23.125C17.8463 23.1226 15.7811 22.2657 14.2579 20.7425C12.7347 19.2194 11.8779 17.1542 11.8754 15Z" fill="#0075FF"/>
</svg>
