<svg width="40" height="40" viewBox="0 0 40 40" fill="none" xmlns="http://www.w3.org/2000/svg">
<path d="M36.0102 10.5469C35.8965 10.2658 35.7162 10.0164 35.485 9.82025C35.2537 9.62408 34.9783 9.48693 34.6824 9.42056C34.3865 9.35419 34.0789 9.36059 33.7861 9.43919C33.4932 9.51779 33.2237 9.66626 33.0008 9.87187L26.9414 15.4687L24.9602 15.0437L24.5305 13.0578L30.1227 6.99843C30.3283 6.77552 30.4768 6.50607 30.5554 6.21318C30.634 5.92029 30.6404 5.61271 30.574 5.31681C30.5076 5.02091 30.3705 4.74553 30.1743 4.51427C29.9781 4.28302 29.7288 4.10279 29.4477 3.98905C27.3235 3.13396 24.9975 2.91066 22.7494 3.346C20.5013 3.78134 18.4269 4.85679 16.7754 6.44303C15.124 8.02927 13.9659 10.0588 13.4404 12.2875C12.9149 14.5163 13.0444 16.8493 13.8133 19.0062L4.8305 27.2156C4.80905 27.2342 4.78871 27.254 4.76956 27.275C3.72886 28.3328 3.1483 29.759 3.15434 31.2428C3.16039 32.7267 3.75254 34.1481 4.80182 35.1974C5.8511 36.2467 7.2725 36.8389 8.75639 36.8449C10.2403 36.8509 11.6665 36.2704 12.7243 35.2297L12.7836 35.1687L20.993 26.1859C23.1505 26.9569 25.4849 27.0878 27.7151 26.5627C29.9452 26.0376 31.976 24.879 33.5629 23.2264C35.1498 21.5738 36.2251 19.4977 36.6593 17.2481C37.0935 14.9985 36.8681 12.6713 36.0102 10.5469ZM24.9993 23.125C23.7322 23.1287 22.4821 22.8332 21.3508 22.2625C20.9856 22.0784 20.5702 22.0187 20.1679 22.0926C19.7657 22.1665 19.3986 22.37 19.1227 22.6719L10.0477 32.6031C9.69545 32.9554 9.21771 33.1532 8.71956 33.1532C8.22142 33.1532 7.74368 32.9554 7.39144 32.6031C7.0392 32.2509 6.84131 31.7731 6.84131 31.275C6.84131 30.7768 7.0392 30.2991 7.39144 29.9469L17.3211 20.8734C17.623 20.5975 17.8264 20.2304 17.9004 19.8282C17.9743 19.4259 17.9146 19.0105 17.7305 18.6453C17.1624 17.5144 16.869 16.2655 16.8743 15C16.8767 12.8459 17.7336 10.7807 19.2567 9.25749C20.7799 7.73429 22.8451 6.87747 24.9993 6.87499H25.1383L21.1196 11.2297C20.9161 11.4504 20.7686 11.7167 20.6895 12.0063C20.6104 12.2959 20.6019 12.6002 20.6649 12.8937L21.5492 17.0109C21.6251 17.3639 21.8013 17.6874 22.0565 17.9427C22.3118 18.198 22.6354 18.3741 22.9883 18.45L27.1055 19.3344C27.399 19.3973 27.7034 19.3889 27.9929 19.3098C28.2825 19.2306 28.5488 19.0831 28.7696 18.8797L33.1243 14.8625C33.1243 14.9094 33.1243 14.9547 33.1243 15.0016C33.1214 17.1554 32.2644 19.2202 30.7412 20.743C29.2181 22.2659 27.1531 23.1225 24.9993 23.125Z" fill="#0075FF"/>
</svg>
