<svg width="25" height="25" viewBox="0 0 25 25" fill="none" xmlns="http://www.w3.org/2000/svg">
<path d="M19.4646 18.5079C19.5343 18.5776 19.5896 18.6604 19.6273 18.7514C19.665 18.8424 19.6844 18.94 19.6844 19.0386C19.6844 19.1371 19.665 19.2347 19.6273 19.3257C19.5896 19.4168 19.5343 19.4995 19.4646 19.5692C19.395 19.6389 19.3122 19.6942 19.2212 19.7319C19.1301 19.7696 19.0326 19.789 18.934 19.789C18.8355 19.789 18.7379 19.7696 18.6468 19.7319C18.5558 19.6942 18.4731 19.6389 18.4034 19.5692L12.184 13.3489L5.96464 19.5692C5.82391 19.7099 5.63303 19.789 5.43401 19.789C5.23499 19.789 5.04412 19.7099 4.90339 19.5692C4.76266 19.4285 4.68359 19.2376 4.68359 19.0386C4.68359 18.8395 4.76266 18.6487 4.90339 18.5079L11.1237 12.2886L4.90339 6.0692C4.76266 5.92847 4.68359 5.73759 4.68359 5.53857C4.68359 5.33955 4.76266 5.14868 4.90339 5.00795C5.04412 4.86722 5.23499 4.78815 5.43401 4.78815C5.63303 4.78815 5.82391 4.86722 5.96464 5.00795L12.184 11.2283L18.4034 5.00795C18.5441 4.86722 18.735 4.78815 18.934 4.78815C19.133 4.78815 19.3239 4.86722 19.4646 5.00795C19.6054 5.14868 19.6844 5.33955 19.6844 5.53857C19.6844 5.73759 19.6054 5.92847 19.4646 6.0692L13.2443 12.2886L19.4646 18.5079Z" fill="white"/>
</svg>
